<svg xmlns="http://www.w3.org/2000/svg" width="19" height="19" viewBox="0 0 19 19">
  <path id="Path_74041" data-name="Path 74041" d="M19,9.5A9.5,9.5,0,1,1,9.5,0,9.5,9.5,0,0,1,19,9.5ZM6.455,7.655H3.8v7.056H6.455ZM15.2,8.829A1.459,1.459,0,0,0,14.95,8.3a1.136,1.136,0,0,0-.906-.424H11.5c.075-.259.135-.508.219-.75a2.738,2.738,0,0,0,.053-1.631A1.977,1.977,0,0,0,9.9,4.06a.486.486,0,0,0-.508.5V5.753a.324.324,0,0,1-.064.188c-.39.463-.782.925-1.183,1.378-.311.354-.636.7-.953,1.046a.21.21,0,0,0-.049.126V14.2a.122.122,0,0,0,.057.1,9.3,9.3,0,0,0,1.683.55,5.916,5.916,0,0,0,.908.083c1.17.009,2.342,0,3.512,0a1.125,1.125,0,0,0,1.153-1.29,1.86,1.86,0,0,0-.144-.416.694.694,0,0,0-.058-.1,1.164,1.164,0,0,0,.246-1.613,1.125,1.125,0,0,0,.444-.739,1.11,1.11,0,0,0-.2-.836,2.192,2.192,0,0,0,.274-.315,3.563,3.563,0,0,0,.188-.443Z" fill="#71c18e"/>
</svg>
