<svg width="24" height="24" viewBox="0 0 24 24" fill="none" xmlns="http://www.w3.org/2000/svg">
<g clip-path="url(#clip0_5_4)">
<path d="M1 24V4.78282C1 3.99523 1.26708 3.33435 1.80124 2.80019C2.3347 2.26673 2.99523 2 3.78282 2H20.2172C21.0048 2 21.6656 2.26673 22.1998 2.80019C22.7333 3.33435 23 3.99523 23 4.78282V17.0167C23 17.8043 22.7333 18.4648 22.1998 18.9983C21.6656 19.5324 21.0048 19.7995 20.2172 19.7995H5.20048L1 24ZM3.78282 17.7255L4.46539 17.0167H20.2172V4.78282H3.78282V17.7255ZM3.78282 4.78282V17.7255V4.78282Z" fill="#666666"/>
<path d="M5 12C8.31371 12 11 9.31371 11 6C11 2.68629 8.31371 0 5 0C1.68629 0 -1 2.68629 -1 6C-1 9.31371 1.68629 12 5 12Z" fill="white"/>
<path d="M4.7434 9.48927C4.65432 9.48948 4.56608 9.4721 4.48374 9.43811C4.4014 9.40412 4.32659 9.3542 4.2636 9.29122C4.20062 9.22823 4.1507 9.15342 4.11671 9.07108C4.08272 8.98874 4.06534 8.9005 4.06556 8.81142V6.41711H1.67784C1.58883 6.41711 1.50068 6.39957 1.41844 6.36551C1.3362 6.33144 1.26148 6.28151 1.19854 6.21857C1.13559 6.15563 1.08566 6.0809 1.0516 5.99866C1.01753 5.91643 1 5.82828 1 5.73927C1 5.65025 1.01753 5.56211 1.0516 5.47987C1.08566 5.39763 1.13559 5.3229 1.19854 5.25996C1.26148 5.19702 1.3362 5.14709 1.41844 5.11302C1.50068 5.07896 1.58883 5.06143 1.67784 5.06143H4.07216V2.67784C4.07216 2.49807 4.14358 2.32565 4.2707 2.19853C4.39781 2.07142 4.57023 2 4.75 2C4.92977 2 5.10219 2.07142 5.22931 2.19853C5.35643 2.32565 5.42784 2.49807 5.42784 2.67784V5.07216H7.82216C8.00193 5.07216 8.17435 5.14357 8.30147 5.27069C8.42858 5.39781 8.5 5.57022 8.5 5.75C8.5 5.92977 8.42858 6.10218 8.30147 6.2293C8.17435 6.35642 8.00193 6.42784 7.82216 6.42784H5.42784V8.82216C5.42806 8.91123 5.41067 8.99948 5.37669 9.08181C5.3427 9.16415 5.29278 9.23896 5.22979 9.30195C5.1668 9.36494 5.09199 9.41486 5.00966 9.44884C4.92732 9.48283 4.83908 9.50022 4.75 9.5L4.7434 9.48927Z" fill="#666666"/>
</g>
<defs>
<clipPath id="clip0_5_4">
<rect width="24" height="24" fill="white"/>
</clipPath>
</defs>
</svg>
