<svg xmlns="http://www.w3.org/2000/svg" width="23" height="15.852" viewBox="0 0 23 15.852">
  <g id="Group_47253" data-name="Group 47253" transform="translate(11146 12127.639)">
    <g id="Group_47252" data-name="Group 47252">
      <g id="Group_47251" data-name="Group 47251">
        <path class="mainPath" id="Path_3126" data-name="Path 3126" d="M685.373,465.6a6.326,6.326,0,0,1,1.073.415,2.544,2.544,0,0,1,1.295,2.27c.013,2.8.009,5.609,0,8.414a2.672,2.672,0,0,1-2.6,2.661c-2.424.025-4.847.012-7.271.01a.7.7,0,0,0-.453.148c-.766.585-1.54,1.159-2.309,1.738a.752.752,0,0,1-.6.185.63.63,0,0,1-.529-.57c-.007-.079-.008-.158-.008-.237q0-6.084,0-12.169a2.693,2.693,0,0,1,1.613-2.625,5.557,5.557,0,0,1,.726-.242Zm-4.532,4.752c1.157,0,2.314,0,3.472,0a.622.622,0,0,0,.636-.5.613.613,0,0,0-.373-.719,1.17,1.17,0,0,0-.4-.057q-3.311,0-6.62,0a1.932,1.932,0,0,0-.258.015.592.592,0,0,0-.513.431.63.63,0,0,0,.627.834C678.555,470.351,679.7,470.348,680.841,470.348Zm.035,1.5H679.15c-.59,0-1.178-.007-1.768,0a.638.638,0,1,0,.053,1.274l6.856,0a1.031,1.031,0,0,0,.151-.012.618.618,0,0,0,.5-.47.63.63,0,0,0-.642-.792C683.16,471.842,682.018,471.845,680.875,471.845Zm-2.068,2.768c-.453,0-.905,0-1.358,0a.657.657,0,0,0-.7.632.65.65,0,0,0,.661.655q1.4.017,2.8,0a.622.622,0,0,0,.64-.664.635.635,0,0,0-.683-.621C679.712,474.61,679.259,474.613,678.807,474.613Z" transform="translate(-11819.972 -12593.233)" fill="#363636"/>
        <path class="mainPath" id="Path_3127" data-name="Path 3127" d="M680.362,465.6a3.547,3.547,0,0,1,.6.233,1.426,1.426,0,0,1,.726,1.273c.007,1.572.005,3.144,0,4.717a1.5,1.5,0,0,1-1.459,1.492c-1.359.014-2.717.007-4.076.006a.389.389,0,0,0-.254.083c-.429.328-.863.649-1.294.974a.421.421,0,0,1-.335.1.353.353,0,0,1-.3-.319c0-.044,0-.089,0-.133q0-3.411,0-6.821a1.51,1.51,0,0,1,.9-1.471,3.116,3.116,0,0,1,.407-.136Zm-2.54,2.664c.649,0,1.3,0,1.946,0a.349.349,0,0,0,.357-.281.344.344,0,0,0-.209-.4.655.655,0,0,0-.224-.032q-1.856,0-3.711,0a1.081,1.081,0,0,0-.144.008.332.332,0,0,0-.288.242.353.353,0,0,0,.352.467C676.541,468.261,677.182,468.26,677.822,468.259Zm.019.839h-.967c-.33,0-.66,0-.991,0a.358.358,0,1,0,.029.714h3.843a.58.58,0,0,0,.085-.007.346.346,0,0,0,.282-.263.353.353,0,0,0-.36-.444C679.122,469.1,678.482,469.1,677.841,469.1Zm-1.159,1.552c-.254,0-.507,0-.761,0a.368.368,0,0,0-.394.354.365.365,0,0,0,.37.367q.785.01,1.57,0a.349.349,0,0,0,.359-.372.356.356,0,0,0-.383-.348C677.189,470.649,676.936,470.65,676.682,470.65Z" transform="translate(-11804.694 -12593.233)" fill="#363636"/>
      </g>
    </g>
  </g>
</svg>
