<svg xmlns="http://www.w3.org/2000/svg" width="22.75" height="21.649" viewBox="0 0 22.75 21.649">
  <g id="Group_47302" data-name="Group 47302" transform="translate(0.01 0.015)">
    <g id="Group_47301" data-name="Group 47301" transform="translate(-0.01 -0.015)">
      <g id="Group_47300" data-name="Group 47300">
        <g id="Group_47299" data-name="Group 47299">
          <path class="mainPath" id="Subtraction_10" data-name="Subtraction 10" d="M16826.951,11626.541h-13.115a1.882,1.882,0,0,1-1.359-.418,1.328,1.328,0,0,1-.492-1.156v-.7h14.455v.411a2.917,2.917,0,0,0,.023.771,3.143,3.143,0,0,0,.326.741v.008a1.7,1.7,0,0,1,.154.291l.02.036v.017Zm1.939-.01a1.978,1.978,0,0,1-.539-.081,1.467,1.467,0,0,1-1.135-1.318l0-1.151c0-.291-.145-.42-.488-.426h-12.279v-17.117a1.293,1.293,0,0,1,.486-1.072,1.835,1.835,0,0,1,1.258-.415h14.9c-.033.071-.07.143-.105.212v.01l-.023.031a.015.015,0,0,0,0,.013s0,.013,0,.017l-.025.044-.023.052-.053.094v.021a5.333,5.333,0,0,0-.225.494,1.523,1.523,0,0,0-.057.555v18.443a1.431,1.431,0,0,1-.363,1.057,1.766,1.766,0,0,1-1.264.553Zm-11.687-7.289a.464.464,0,0,0-.4.182.334.334,0,0,0,0,.389.469.469,0,0,0,.4.184h10.625a.381.381,0,1,0,0-.753Zm0-5.286a.382.382,0,1,0,0,.755h10.625a.376.376,0,1,0,0-.742Zm0-5.284a.381.381,0,1,0,0,.752h10.631a.381.381,0,1,0,0-.752Zm17.5-1.45h-3.33c0-.1,0-.214-.012-.347v-.059a2,2,0,0,1,.145-1,1.718,1.718,0,0,1,1.52-.866,1.769,1.769,0,0,1,.2.011,1.526,1.526,0,0,1,1.475,1.339,5.691,5.691,0,0,1,.018.605v.009c0,.032,0,.066,0,.1l0,.212Z" transform="translate(-16811.977 -11604.949)" fill="#363636"/>
          <path class="mainPath" id="Path_74048" data-name="Path 74048" d="M27.819,336.24h12.87a3.4,3.4,0,0,0,.473,2.38H29.475a1.519,1.519,0,0,1-1.649-1.644C27.818,336.739,27.819,336.5,27.819,336.24Z" transform="translate(-27.796 -316.977)" fill="#363636"/>
          <path class="mainPath" id="Path_74049" data-name="Path 74049" d="M311.322,10.585H308.35a3.866,3.866,0,0,1,.115-1.464,1.483,1.483,0,0,1,2.844.5A8.863,8.863,0,0,1,311.322,10.585Z" transform="translate(-288.578 -8.157)" fill="#363636"/>
        </g>
      </g>
    </g>
  </g>
</svg>
