<svg xmlns="http://www.w3.org/2000/svg" xmlns:xlink="http://www.w3.org/1999/xlink" width="89.204" height="74.121" viewBox="0 0 89.204 74.121"><defs><style>.a{fill:#d13827;}.b{clip-path:url(#a);}</style><clipPath id="a"><rect class="a" width="89.204" height="74.121"/></clipPath></defs><g class="b"><path class="a" d="M89.2,55.374c-.284,1.3-.513,2.61-.865,3.888a19.847,19.847,0,0,1-3.6,7.008c-.4.507-.92.838-1.5.565a1.682,1.682,0,0,1-.884-1.04,2.031,2.031,0,0,1,.485-1.315A18.076,18.076,0,0,0,70.179,35.446,18.058,18.058,0,1,0,78.826,68.28c.923-.629,1.655-.6,2.137.085.5.7.249,1.436-.7,2.1a20.636,20.636,0,0,1-31.068-9.906,1.138,1.138,0,0,0-1.29-.892q-21.954.03-43.909.013a9.956,9.956,0,0,1-1.217-.043,3.015,3.015,0,0,1-2.649-3.9c1.361-4.9,2.761-9.782,4.158-14.669.271-.949.9-1.359,1.64-1.147.8.229,1.128.91.852,1.887q-1.978,7-3.979,14c-.323,1.137-.233,1.258.951,1.259q4.792,0,9.583,0c.284,0,.568-.024.9-.038V16.006l-.1-.024q-.964,3.373-1.928,6.747-1.929,6.788-3.85,13.578c-.186.657-.472,1.2-1.242,1.265-1.022.089-1.616-.764-1.3-1.91C6.441,33.4,7.1,31.137,7.74,28.875L14.08,6.585c.047-.168.1-.334.141-.5.7-2.851,1.628-3.587,4.537-3.587h1.955c.2-1.039-.225-2.54,1.475-2.467,1.506.064,1.126,1.407,1.267,2.467h3.287A19,19,0,0,1,27.478.311c.091-.2.568-.324.85-.3,1.541.15,1.21,1.412,1.3,2.433H33.1c.148-.994-.238-2.427,1.378-2.42,1.58.006,1.206,1.387,1.321,2.409h3.522c.114-1-.279-2.3,1.3-2.429.885-.074,1.128.37,1.445,2.444h3.4c.151-1.012-.225-2.439,1.4-2.423,1.578.016,1.185,1.4,1.307,2.414h3.521c.129-1-.284-2.457,1.482-2.425.85.015,1.091.548,1.207,2.41h3.457c.139-.977-.225-2.355,1.319-2.4,1.652-.046,1.239,1.4,1.4,2.418h3.5C64.183,1.43,63.78-.1,65.544.038c1.411.114,1.1,1.39,1.2,2.457.8,0,1.6,0,2.4,0,2.648.006,4.05,1.39,4.053,4.014q.006,6.416,0,12.832c0,.175.005.349-.005.524a1.266,1.266,0,0,1-1.289,1.344A1.281,1.281,0,0,1,70.6,19.865c-.038-1.1-.012-2.211-.013-3.317,0-.345,0-.69,0-1.091H16.942V57.011H48.178c-.947-6.714.663-12.658,5.253-17.618,4.57-4.938,10.322-7.022,17.115-6.587.013-.3.037-.606.038-.911q.006-3.317,0-6.634a1.35,1.35,0,0,1,1.02-1.521c.9-.223,1.581.381,1.588,1.435.015,2.444.02,4.888-.006,7.332-.006.554.15.776.713.951,8.715,2.726,13.809,8.592,15.162,17.672a2.216,2.216,0,0,0,.141.4ZM16.892,12.727H70.579c0-2.256.035-4.462-.038-6.665a1.259,1.259,0,0,0-.829-.891,23.927,23.927,0,0,0-2.92-.043c-.243,1.743-.544,2.256-1.379,2.221-1.423-.058-1.292-1.209-1.375-2.167H60.562c-.19,1.681-.524,2.193-1.386,2.176-.84-.016-1.139-.484-1.377-2.179H54.393c-.145,1.586-.424,2.129-1.219,2.161-1.554.062-1.414-1.189-1.512-2.172H48.233c-.307,1.778-.567,2.22-1.381,2.18-1.412-.069-1.288-1.225-1.4-2.185H42.046c-.219,1.7-.524,2.222-1.368,2.186-1.422-.061-1.3-1.207-1.373-2.163H35.841c-.206,1.678-.492,2.136-1.316,2.171-.863.037-1.181-.432-1.464-2.177H29.653c-.131,1.579-.414,2.13-1.213,2.16-1.55.057-1.413-1.191-1.513-2.17H23.506c-.3,1.764-.574,2.223-1.393,2.178-1.4-.078-1.285-1.231-1.387-2.231-.99,0-1.916-.022-2.84.008a.921.921,0,0,0-.989.99c-.011,2.179,0,4.357,0,6.611" transform="translate(0 0.001)"/><path class="a" d="M254.735,242.5a11.128,11.128,0,0,1-7.3-3.192c-.89-.834-1.748-1.7-2.593-2.586a2.626,2.626,0,0,1,.676-4.37c1.561-.833,3.142-1.628,4.719-2.433a1.868,1.868,0,0,1,2.13.118,1.893,1.893,0,0,1,.606,2.126c-.04.169-.1.335-.143.5-.385,1.375-.358,1.43.973,1.921a5.214,5.214,0,0,0,6.88-3.765c.379-1.722.841-2.132,2.624-2.353.806-.1,1.607-.261,2.415-.32a2.185,2.185,0,0,1,2.423,2.493A13.19,13.19,0,0,1,254.735,242.5m10.641-11.641a6.663,6.663,0,0,1-.664.06c-.965-.014-1.451.344-1.789,1.377a7.719,7.719,0,0,1-11.094,4.246c-1.31-.731-2.554-1.54-1.834-3.551l-3.306,1.7c2.768,4.174,7.244,6.056,11.317,4.806,4.1-1.257,7.422-5.113,7.37-8.642" transform="translate(-187.165 -175.03)"/><path class="a" d="M253.814,169.065a11.59,11.59,0,0,1,7.9,3.133c.936.871,1.835,1.782,2.72,2.705a2.615,2.615,0,0,1-.666,4.316c-1.582.855-3.194,1.655-4.795,2.476a1.826,1.826,0,0,1-2.121-.161,1.881,1.881,0,0,1-.588-2.055c.052-.226.124-.448.188-.671.351-1.231.334-1.266-.882-1.752a5.2,5.2,0,0,0-7.011,3.757c-.344,1.615-.85,2.089-2.483,2.314q-1.208.166-2.418.312A2.209,2.209,0,0,1,241.1,181a13.127,13.127,0,0,1,12.711-11.931M243.837,180.7c.258,0,.454,0,.651,0a1.731,1.731,0,0,0,1.845-1.427,7.754,7.754,0,0,1,11.639-3.9c1.08.715,1.81,1.545,1.4,2.949-.007.025.066.073.142.152l3.1-1.6c-3.118-3.744-6.611-6.377-11.734-4.659-3.945,1.323-6.88,4.9-7.04,8.481" transform="translate(-184.971 -129.708)"/><path class="a" d="M146.124,86.831q-5.616,0-11.233,0c-.946,0-1.535-.513-1.54-1.287s.593-1.291,1.526-1.326c.2-.008.406,0,.609,0h10.449q5.442,0,10.884,0a3.688,3.688,0,0,1,.865.049,1.227,1.227,0,0,1,1.043,1.392,1.2,1.2,0,0,1-1.2,1.162c-.375.031-.754.014-1.131.014H146.124" transform="translate(-102.308 -64.607)"/><path class="a" d="M102.3,180.472c-.435,0-.872.031-1.3-.008a1.21,1.21,0,0,1-1.2-1.253,1.184,1.184,0,0,1,1.133-1.312,17.047,17.047,0,0,1,2.866,0,1.179,1.179,0,0,1,1.114,1.326,1.215,1.215,0,0,1-1.218,1.237c-.461.036-.927.007-1.391.006" transform="translate(-76.561 -136.441)"/><path class="a" d="M179.382,180.472c-.406,0-.813.024-1.217,0a1.267,1.267,0,0,1-1.269-1.282,1.222,1.222,0,0,1,1.164-1.294,18.814,18.814,0,0,1,2.78,0,1.229,1.229,0,0,1,1.186,1.276,1.275,1.275,0,0,1-1.253,1.3c-.461.033-.927.006-1.391.007" transform="translate(-135.716 -136.44)"/><path class="a" d="M179.553,207.063c.406,0,.813-.022,1.217,0a1.276,1.276,0,0,1,1.284,1.267,1.218,1.218,0,0,1-1.152,1.3,16.714,16.714,0,0,1-2.864-.008,1.177,1.177,0,0,1-1.1-1.336,1.2,1.2,0,0,1,1.225-1.224c.462-.03.927-.005,1.391-.007" transform="translate(-135.746 -158.854)"/><path class="a" d="M102.4,207.061c.406,0,.813-.02,1.217,0a1.276,1.276,0,0,1,1.293,1.259,1.217,1.217,0,0,1-1.145,1.31,16.814,16.814,0,0,1-2.864,0,1.181,1.181,0,0,1-1.111-1.329,1.2,1.2,0,0,1,1.219-1.231c.462-.031.927-.006,1.391-.006v0" transform="translate(-76.56 -158.853)"/><path class="a" d="M140.906,122.444a9.841,9.841,0,0,1-1.385-.013,1.183,1.183,0,0,1-1.112-1.315,1.167,1.167,0,0,1,1.2-1.229c.895-.043,1.794-.042,2.689,0a1.158,1.158,0,0,1,1.193,1.231,1.18,1.18,0,0,1-1.113,1.314,10.662,10.662,0,0,1-1.472.012" transform="translate(-106.188 -91.954)"/><path class="a" d="M102.419,151.507c-.463,0-.928.018-1.39,0a1.2,1.2,0,0,1-1.237-1.208,1.126,1.126,0,0,1,1.012-1.308,17.374,17.374,0,0,1,3.11.01,1.121,1.121,0,0,1,.985,1.326,1.191,1.191,0,0,1-1.178,1.175c-.432.032-.868.006-1.3.006v0" transform="translate(-76.558 -114.255)"/><path class="a" d="M140.871,151.523c-.434,0-.87.029-1.3-.007a1.175,1.175,0,0,1-1.17-1.171,1.105,1.105,0,0,1,.971-1.327,16.513,16.513,0,0,1,3.191.016c.689.073.987.669.912,1.365a1.149,1.149,0,0,1-1.128,1.113c-.488.041-.983.008-1.475.008v0" transform="translate(-106.177 -114.275)"/><path class="a" d="M179.439,151.473c-.434,0-.87.024-1.3-.006a1.189,1.189,0,0,1-1.2-1.244,1.138,1.138,0,0,1,1.049-1.283,17.942,17.942,0,0,1,3.028.009,1.133,1.133,0,0,1,1.031,1.295,1.2,1.2,0,0,1-1.219,1.225c-.462.028-.926.005-1.39,0" transform="translate(-135.749 -114.223)"/><path class="a" d="M218.062,122.452a11.708,11.708,0,0,1-1.386-.01,1.231,1.231,0,0,1-1.17-1.36,1.2,1.2,0,0,1,1.238-1.2c.866-.035,1.736-.033,2.6,0a1.186,1.186,0,0,1,1.248,1.186,1.227,1.227,0,0,1-1.147,1.377,11.191,11.191,0,0,1-1.386.01" transform="translate(-165.334 -91.954)"/><path class="a" d="M256.62,122.461a12.145,12.145,0,0,1-1.388-.01,1.262,1.262,0,0,1-1.183-1.359,1.2,1.2,0,0,1,1.24-1.206c.9-.028,1.8-.039,2.691.009a1.275,1.275,0,0,1,.112,2.53,12.54,12.54,0,0,1-1.47.078c0-.014,0-.028,0-.043" transform="translate(-194.904 -91.959)"/><path class="a" d="M218.063,151.5c-.434,0-.869.022-1.3,0a1.193,1.193,0,0,1-1.232-1.2,1.113,1.113,0,0,1,1-1.31,17.058,17.058,0,0,1,3.109,0,1.11,1.11,0,0,1,.975,1.325,1.163,1.163,0,0,1-1.16,1.177c-.46.037-.925.007-1.388.007v.006" transform="translate(-165.352 -114.247)"/><path class="a" d="M141.012,207.058c.405,0,.812-.021,1.216,0a1.293,1.293,0,0,1,.128,2.575,17.37,17.37,0,0,1-2.861-.014,1.165,1.165,0,0,1-1.09-1.336,1.2,1.2,0,0,1,1.218-1.222c.46-.036.926-.007,1.389-.008" transform="translate(-106.182 -158.849)"/><path class="a" d="M102.353,119.927c.463,0,.929-.03,1.389.008a1.187,1.187,0,0,1,1.159,1.193,1.126,1.126,0,0,1-1.008,1.31,17.669,17.669,0,0,1-3.111,0,1.122,1.122,0,0,1-.99-1.322,1.184,1.184,0,0,1,1.172-1.18c.461-.034.926-.007,1.389-.006" transform="translate(-76.557 -92)"/><path class="a" d="M179.485,122.449a9.628,9.628,0,0,1-1.471-.014,1.187,1.187,0,0,1-1.071-1.355,1.159,1.159,0,0,1,1.169-1.176c.925-.038,1.854-.042,2.778,0a1.164,1.164,0,0,1,1.158,1.189,1.2,1.2,0,0,1-1.091,1.343,9.693,9.693,0,0,1-1.472.014Z" transform="translate(-135.749 -91.968)"/><path class="a" d="M140.925,180.477c-.434,0-.871.028-1.3-.007a1.293,1.293,0,0,1-.07-2.578,19.287,19.287,0,0,1,2.777,0,1.189,1.189,0,0,1,1.149,1.291,1.245,1.245,0,0,1-1.251,1.284c-.432.03-.868.005-1.3.005" transform="translate(-106.169 -136.444)"/><path class="a" d="M155.054,40.374c-2.758,0-5.517,0-8.275,0-1.047,0-1.614-.463-1.619-1.283s.577-1.327,1.6-1.329q8.362-.014,16.725,0c1.027,0,1.583.515,1.565,1.354-.018.81-.544,1.253-1.546,1.256-2.817.008-5.633,0-8.45,0" transform="translate(-111.368 -28.964)"/></g></svg>