<svg xmlns="http://www.w3.org/2000/svg" width="20" height="20" viewBox="0 0 20 20">
  <path id="Exclusion_4" data-name="Exclusion 4" d="M34,16A10,10,0,1,1,44,6,10.011,10.011,0,0,1,34,16ZM34.662.92l-2.489,0a1.063,1.063,0,0,0-.86.412c-.22.272-.442.549-.656.817L30.54,2.3l-.286.356A1.127,1.127,0,0,0,30,3.375V5.8c0,1.364,0,2.775,0,4.162a1.083,1.083,0,0,0,1.12,1.117h2.4c1.092,0,2.221,0,3.356,0a1.2,1.2,0,0,0,.3-.036A1.083,1.083,0,0,0,38,9.961c0-.7,0-1.4,0-2.088V4.2c0-.718,0-1.447,0-2.168A1.079,1.079,0,0,0,36.887.922Q35.775.919,34.662.92Zm1.116,6.926H32.222a.421.421,0,0,1-.3-.115.343.343,0,0,1-.1-.252.368.368,0,0,1,.41-.358h3.544a.367.367,0,0,1,.409.36.338.338,0,0,1-.1.25A.421.421,0,0,1,35.778,7.846ZM33.995,6.757h0A.334.334,0,0,1,33.7,6.6a.494.494,0,0,1-.064-.234c0-.32,0-.646,0-.961V5.242q0-.088,0-.177V5.058q0-.085,0-.169V4.765l-.006,0-.015-.009-.006,0-.065.068-.067.068-.033.034c-.09.092-.183.187-.278.277A.385.385,0,0,1,32.9,5.3a.354.354,0,0,1-.347-.276.336.336,0,0,1,.089-.334c.394-.4.764-.766,1.1-1.1A.366.366,0,0,1,34,3.488a.351.351,0,0,1,.247.1c.36.351.732.723,1.108,1.105a.353.353,0,0,1-.007.5.359.359,0,0,1-.51,0l-.12-.117a4.819,4.819,0,0,0-.354-.328v.774c0,.284,0,.573,0,.858a.358.358,0,0,1-.265.354A.363.363,0,0,1,33.995,6.757Z" transform="translate(-24 4)" fill="#508e4b"/>
</svg>
