<svg id="archived" xmlns="http://www.w3.org/2000/svg" width="19" height="19" viewBox="0 0 19 19">
  <path id="Path_74043" data-name="Path 74043" d="M45.584,46.92H42.142a.307.307,0,0,0-.342.344v.792a.261.261,0,0,0,.122.245.574.574,0,0,0,.261.068h3.463a.307.307,0,0,0,.315-.33c0-.243-.009-.488,0-.731a.34.34,0,0,0-.375-.387Z" transform="translate(-33.96 -38.12)" fill="#dc773f"/>
  <path id="Path_74044" data-name="Path 74044" d="M9.5,0A9.5,9.5,0,1,0,19,9.5,9.5,9.5,0,0,0,9.5,0Zm4.626,13.788a.79.79,0,0,1-.315.065H6.034a.626.626,0,0,1-.671-.659V7.875h9.111v5.278a.625.625,0,0,1-.355.63ZM15,6.75a2.142,2.142,0,0,1-.212.347.607.607,0,0,1-.471.165H5.53a.6.6,0,0,1-.655-.511,2.916,2.916,0,0,1,0-.787.6.6,0,0,1,.623-.5h8.8a.647.647,0,0,1,.638.368c.025.047.04.1.06.144Z" fill="#dc773f"/>
</svg>
