<svg xmlns="http://www.w3.org/2000/svg" width="39.887" height="48.462" viewBox="0 0 39.887 48.462">
  <g id="Group_47305" data-name="Group 47305" transform="translate(-132.955 -41.942)">
    <g id="Group_1508" data-name="Group 1508" transform="translate(133.455 42.442)">
      <g id="Group_147" data-name="Group 147" transform="translate(0 0)">
        <path id="Path_103" data-name="Path 103" d="M1090.58-297.763a19.5,19.5,0,0,0-19.443,19.443c-.088,11.348,10.023,16.868,18.332,27.184a2.253,2.253,0,0,0,1.354,0c2.39-2.961,19.307-15.56,19.2-27.181A19.506,19.506,0,0,0,1090.58-297.763Zm-.02,25.6a7.534,7.534,0,0,1-7.534-7.534,7.534,7.534,0,0,1,7.534-7.534,7.534,7.534,0,0,1,7.534,7.534A7.534,7.534,0,0,1,1090.56-272.165Z" transform="translate(-1071.136 297.763)" fill="none"/>
        <path id="Path_104" data-name="Path 104" d="M1090.58-296.058a17.533,17.533,0,0,1,12.5,5.193,17.917,17.917,0,0,1,5.234,12.56c.033,3.6-1.858,7.846-5.621,12.617a92.945,92.945,0,0,1-10.044,10.39c-1.033.951-1.869,1.721-2.474,2.337-2.281-2.745-4.631-5.119-6.912-7.422a59.661,59.661,0,0,1-7.489-8.53,16.226,16.226,0,0,1-2.936-9.394,17.873,17.873,0,0,1,5.228-12.557,17.548,17.548,0,0,1,12.51-5.194m0-1.705a19.5,19.5,0,0,0-19.443,19.443c-.088,11.348,10.023,16.868,18.332,27.184a1.346,1.346,0,0,0,.664.1,1.413,1.413,0,0,0,.689-.106c2.39-2.961,19.307-15.56,19.2-27.181a19.506,19.506,0,0,0-19.443-19.443Z" transform="translate(-1071.136 297.763)" fill="#d13827" stroke="#d13827" stroke-width="1"/>
        <g id="Group_146" data-name="Group 146" transform="translate(8.003 6.617)">
          <ellipse id="Ellipse_13" data-name="Ellipse 13" cx="3.404" cy="3.924" rx="3.404" ry="3.924" transform="translate(8.093 4.713)" fill="#d13827"/>
          <path id="Path_105" data-name="Path 105" d="M1200.885-193.31a11.44,11.44,0,0,0-11.44,11.44,11.41,11.41,0,0,0,3.934,8.629,11.247,11.247,0,0,1,.723-2.644,9.011,9.011,0,0,1-2.265-5.985,9.048,9.048,0,0,1,9.048-9.048,9.048,9.048,0,0,1,9.048,9.048,9.009,9.009,0,0,1-2.195,5.9,11.23,11.23,0,0,1,.745,2.646,11.409,11.409,0,0,0,3.842-8.55A11.44,11.44,0,0,0,1200.885-193.31Z" transform="translate(-1189.445 193.31)" fill="#d13827"/>
          <path id="Path_106" data-name="Path 106" d="M1230.629-102.039a1.254,1.254,0,0,1-1.175,1.11,1.254,1.254,0,0,1-1.174-1.11c-2.922.633-5.139,3.581-5.18,7.138a11.384,11.384,0,0,0,6.3,1.895,11.388,11.388,0,0,0,6.407-1.961C1235.743-98.5,1233.534-101.411,1230.629-102.039Zm-1.174,7.838c-.662,0-1.2-1.231-1.2-2.75s.537-2.75,1.2-2.75,1.2,1.231,1.2,2.75S1230.117-94.2,1229.455-94.2Z" transform="translate(-1218.002 115.866)" fill="#d13827"/>
        </g>
      </g>
      <path id="Path_1095" data-name="Path 1095" d="M0,0H24.963" transform="translate(7.055 46.712)" fill="none" stroke="#d13827" stroke-linecap="round" stroke-width="2.5"/>
    </g>
  </g>
</svg>
