<svg xmlns="http://www.w3.org/2000/svg" width="74.644" height="81.181" viewBox="0 0 74.644 81.181">
  <g id="Group_3240" data-name="Group 3240" transform="translate(-3.263 -0.157)">
    <g id="Group_47387" data-name="Group 47387">
      <path id="Path_3034" data-name="Path 3034" d="M50.352,81.922c-1.431-.2-2.869-.368-4.292-.618A36.34,36.34,0,0,1,27.5,72.164,35.534,35.534,0,0,1,15.861,50.656a36.121,36.121,0,0,1,9.476-30.918c.6-.662,1.287-1.249,2.007-1.942l-2.516-2.728c-.377.33-.717.647-1.077.94a1.574,1.574,0,1,1-2.115-2.331q2.17-2.031,4.394-4a1.565,1.565,0,0,1,2.272.054A1.588,1.588,0,0,1,28.165,12c-.3.3-.618.574-.994.921L29.548,15.5c2.646-1.488,5.128-3.118,7.8-4.322,2.652-1.194,5.5-1.961,8.373-2.955V3.913c-.7,0-1.384.011-2.062,0a1.57,1.57,0,0,1-1.726-1.559,1.566,1.566,0,0,1,1.758-1.6q9.036-.01,18.072,0a1.566,1.566,0,0,1,1.765,1.6c-.008.958-.686,1.551-1.8,1.569-.317.005-.634,0-.951,0H59.764V8.492A37.449,37.449,0,0,1,75.725,15.7L78.3,12.931c-.336-.31-.644-.586-.941-.872a1.6,1.6,0,0,1-.2-2.326,1.562,1.562,0,0,1,2.27-.062q2.226,1.969,4.395,4a1.576,1.576,0,1,1-2.167,2.287c-.32-.27-.625-.558-1.007-.9l-2.5,2.71c.538.522,1.065.992,1.546,1.505,8.126,8.661,11.528,18.9,10,30.675A36.852,36.852,0,0,1,62.866,80.5c-2.358.626-4.818.867-7.231,1.29-.178.031-.351.087-.526.132ZM86.9,44.85a34.175,34.175,0,1,0-34.077,33.9C71.66,78.669,86.989,63.42,86.9,44.85M56.482,3.978h-7.5V7.942h7.5Z" transform="translate(-12.141 -0.584)" fill="#d13827"/>
      <path id="Path_3035" data-name="Path 3035" d="M48.94,97.836A30.09,30.09,0,0,1,79.457,68.02c16.582.174,30.012,13.606,29.927,29.931a30.108,30.108,0,0,1-30.559,29.865c-16.547-.177-30.038-13.711-29.886-29.98m57.274.064a27.054,27.054,0,1,0-27,26.748,26.911,26.911,0,0,0,27-26.748" transform="translate(-38.573 -53.611)" fill="#d13827"/>
      <path id="Path_3036" data-name="Path 3036" d="M118.228,131.493a18.075,18.075,0,0,1,7.7-2.9A17.073,17.073,0,1,1,111,147.641a24.105,24.105,0,0,1-.116-3.161,1.564,1.564,0,0,1,1.647-1.724c.958.031,1.536.717,1.506,1.838-.161,6.048,2.35,10.638,7.749,13.361A13.941,13.941,0,0,0,141.9,144.48c-.642-10.168-12.294-16.185-21.021-10.905-.13.079-.251.172-.434.3a6.912,6.912,0,0,1,.609.417,1.493,1.493,0,0,1,.526,1.635,1.423,1.423,0,0,1-1.367,1.135c-1.267.02-2.538.007-3.8-.077a1.487,1.487,0,0,1-1.475-1.636c-.007-1.083.027-2.167.056-3.25a1.631,1.631,0,0,1,1.194-1.746c.763-.214,1.341.077,1.874.941a1.849,1.849,0,0,0,.168.2" transform="translate(-87.394 -101.239)" fill="#d13827"/>
    </g>
  </g>
</svg>
