<svg xmlns="http://www.w3.org/2000/svg" width="18" height="18" viewBox="0 0 18 18">
  <path id="Subtraction_6" data-name="Subtraction 6" d="M9,18a9,9,0,1,1,9-9A9,9,0,0,1,9,18ZM5.85,7.65A1.352,1.352,0,0,0,4.5,9v4.5a1.352,1.352,0,0,0,1.35,1.35h6.3A1.352,1.352,0,0,0,13.5,13.5V9a1.352,1.352,0,0,0-1.35-1.35ZM9,4.5a1.556,1.556,0,0,1,1.336.563A2.659,2.659,0,0,1,10.8,6.709V7.2h1.35V6.709a3.932,3.932,0,0,0-.773-2.489A3,3,0,0,0,9,3.15,3.017,3.017,0,0,0,6.61,4.234a3.855,3.855,0,0,0-.76,2.475V7.2H7.2V6.709a2.6,2.6,0,0,1,.464-1.632A1.554,1.554,0,0,1,9,4.5Zm0,8.55a.451.451,0,0,1-.45-.45V11.574A.89.89,0,0,1,8.1,10.8a.9.9,0,1,1,1.8,0,.889.889,0,0,1-.45.774V12.6a.451.451,0,0,1-.45.45Z" fill="#363636"/>
</svg>
