<svg xmlns="http://www.w3.org/2000/svg" width="19" height="19" viewBox="0 0 19 19">
  <path id="Exclusion_10" data-name="Exclusion 10" d="M9.5,19A9.5,9.5,0,1,1,19,9.5,9.5,9.5,0,0,1,9.5,19Zm.9-7.587a1,1,0,0,0-.681,1.732l2.194,2.046a1,1,0,0,0,1.413-.05c.014-.014.027-.029.04-.044a.975.975,0,0,0,.228-.16l3.328-3.1A1,1,0,1,0,15.56,10.37l-2.941,2.743-1.535-1.431A1,1,0,0,0,10.4,11.413ZM4,11a1,1,0,0,0,0,2H7a1,1,0,0,0,0-2ZM4,8a1,1,0,0,0,0,2h8a1,1,0,0,0,0-2ZM4,5A1,1,0,0,0,4,7h8a1,1,0,0,0,0-2Z" fill="#579998"/>
</svg>
