<svg xmlns="http://www.w3.org/2000/svg" width="18.578" height="18.578" viewBox="0 0 18.578 18.578">
  <path id="Subtraction_7" data-name="Subtraction 7" d="M9.289,18.578a9.289,9.289,0,1,1,9.289-9.289A9.289,9.289,0,0,1,9.289,18.578ZM6.047,6.967a.242.242,0,0,0-.242.242V13.74a.963.963,0,0,0,.968.967h5.806a.961.961,0,0,0,.967-.967V7.208a.242.242,0,0,0-.242-.242Zm-.4-1.935a.481.481,0,0,0-.483.483V6.08a.242.242,0,0,0,.242.243h8.547a.235.235,0,0,0,.172-.07.238.238,0,0,0,.07-.172V5.515a.482.482,0,0,0-.484-.483H11.449l-.181-.387a.456.456,0,0,0-.181-.191.516.516,0,0,0-.262-.07h-2.3a.516.516,0,0,0-.262.07.464.464,0,0,0-.182.191L7.9,5.028Zm5.968,8.386a.31.31,0,0,1-.322-.322V8.579a.323.323,0,1,1,.645,0v4.515a.31.31,0,0,1-.323.323Zm-1.935,0a.31.31,0,0,1-.232-.09.316.316,0,0,1-.091-.232V8.579a.31.31,0,0,1,.091-.231.341.341,0,0,1,.463,0A.31.31,0,0,1,10,8.579v4.515a.31.31,0,0,1-.322.323Zm-1.935,0a.31.31,0,0,1-.322-.322V8.579a.323.323,0,1,1,.645,0v4.515a.316.316,0,0,1-.091.232.31.31,0,0,1-.232.091Z" fill="#18355f"/>
</svg>
