<svg xmlns="http://www.w3.org/2000/svg" width="19" height="19" viewBox="0 0 19 19">
  <path id="Exclusion_4" data-name="Exclusion 4" d="M9.5,19A9.5,9.5,0,1,1,19,9.5,9.5,9.5,0,0,1,9.5,19Zm0-8.04h0l2.452,2.208a1,1,0,0,0,1.412-.074l.113-.126a1,1,0,0,0-.074-1.413L11.121,9.5,13.4,7.445a1,1,0,0,0,.075-1.413l-.114-.126a1,1,0,0,0-1.412-.074L9.5,8.04,7.047,5.831a1,1,0,0,0-1.413.075l-.113.126a1,1,0,0,0,.074,1.412L7.879,9.5,5.594,11.556a1,1,0,0,0-.074,1.413l.114.126a1,1,0,0,0,1.412.074L9.5,10.961Z" fill="#a72e23"/>
</svg>
