<svg xmlns="http://www.w3.org/2000/svg" width="20" height="20" viewBox="0 0 20 20">
  <path id="Exclusion_3" data-name="Exclusion 3" d="M10,20A10,10,0,1,1,20,10,10.011,10.011,0,0,1,10,20Zm.015-14.37a4.819,4.819,0,0,0-2.884.955,4.653,4.653,0,0,0-1.8,2.681,4.8,4.8,0,0,0,.807,4.1L4.7,14.8l.412.414.551.553.709-.71.709-.71a5.3,5.3,0,0,0,2.923.966,5.381,5.381,0,0,0,2.948-.972l1.259,1.267.144.145.955-.955L13.9,13.362A4.842,4.842,0,0,0,10.015,5.63ZM13.73,4.238a1.871,1.871,0,0,0-1.463.686l2.015,1.692.933.784a1.926,1.926,0,0,0-1.408-3.161Zm-7.43,0a2.091,2.091,0,0,0-.335.028A1.837,1.837,0,0,0,4.432,5.584,1.878,1.878,0,0,0,4.789,7.4l1.179-.99L7.739,4.921A1.907,1.907,0,0,0,6.3,4.235Zm4.246,8.419H9.424v-.806h1.122v.805Zm0-1.384H9.418V8.192h1.125V11.27Z" fill="#cfa22b"/>
</svg>
