<svg xmlns="http://www.w3.org/2000/svg" width="19" height="19" viewBox="0 0 19 19">
  <path id="Path_74041" data-name="Path 74041" d="M19,9.5A9.5,9.5,0,1,0,9.5,19,9.5,9.5,0,0,0,19,9.5ZM6.455,11.345H3.8V4.289H6.455Zm8.75-1.174a1.459,1.459,0,0,1-.255.533,1.136,1.136,0,0,1-.906.424H11.5c.075.259.135.508.219.75a2.738,2.738,0,0,1,.053,1.631A1.977,1.977,0,0,1,9.9,14.94a.486.486,0,0,1-.508-.5V13.247a.324.324,0,0,0-.064-.188c-.39-.463-.782-.925-1.183-1.378-.311-.354-.636-.7-.953-1.046a.21.21,0,0,1-.049-.126V4.8A.122.122,0,0,1,7.2,4.7a9.3,9.3,0,0,1,1.683-.55,5.916,5.916,0,0,1,.908-.083c1.17-.009,2.342,0,3.512,0a1.125,1.125,0,0,1,1.153,1.29,1.86,1.86,0,0,1-.144.416.694.694,0,0,1-.058.1A1.164,1.164,0,0,1,14.5,7.486a1.125,1.125,0,0,1,.444.739,1.11,1.11,0,0,1-.2.836,2.192,2.192,0,0,1,.274.315,3.563,3.563,0,0,1,.188.443Z" fill="#603f84"/>
</svg>
