<svg xmlns="http://www.w3.org/2000/svg" width="33.537" height="39.126" viewBox="0 0 33.537 39.126">
  <path id="Icon_metro-file-pdf" data-name="Icon metro-file-pdf" d="M34.623,10.5a5.08,5.08,0,0,1,1.048,1.659,5.039,5.039,0,0,1,.437,1.921V39.234a2.087,2.087,0,0,1-2.1,2.1H4.667a2.087,2.087,0,0,1-2.1-2.1V4.3a2.087,2.087,0,0,1,2.1-2.1H24.23a5.04,5.04,0,0,1,1.921.437,5.081,5.081,0,0,1,1.659,1.048ZM24.929,5.173v8.21h8.21a2.386,2.386,0,0,0-.48-.9L25.824,5.653a2.385,2.385,0,0,0-.9-.48Zm8.384,33.362V16.177H24.23a2.087,2.087,0,0,1-2.1-2.1V5H5.365V38.535H33.313Z" transform="translate(-2.571 -2.203)" fill="#4b4b4b"/>
</svg>
