<svg xmlns="http://www.w3.org/2000/svg" width="66.513" height="65.95" viewBox="0 0 66.513 65.95"><g transform="translate(-196.802 -216.333)"><g transform="translate(-62 59.582)"><g transform="translate(258.802 156.752)"><g transform="translate(0 0)"><path d="M33.1,56.872a25.509,25.509,0,0,0,4.933-.48l1.207-.238L40.41,55.8A23.88,23.88,0,0,0,57.7,32.97a23.413,23.413,0,0,0-.543-5.022L56.9,26.761l-.384-1.154A24.48,24.48,0,0,0,33.1,9.068a25.493,25.493,0,0,0-5.136.521l-1.2.248-1.171.364A23.907,23.907,0,0,0,8.492,32.97a23.412,23.412,0,0,0,.561,5.1l.265,1.186.388,1.153A24.5,24.5,0,0,0,33.1,56.872m7.241,9.078-1.6-5.972a29.086,29.086,0,0,1-5.641.549A28.213,28.213,0,0,1,6.242,41.576L.728,43.054,0,40.338l5.485-1.47a27,27,0,0,1-.649-5.9A27.655,27.655,0,0,1,24.5,6.711L22.9.728,25.613,0l1.61,6.009a29.08,29.08,0,0,1,5.874-.6A28.21,28.21,0,0,1,59.981,24.452l5.8-1.555.728,2.716-5.784,1.55a27,27,0,0,1,.629,5.808A27.662,27.662,0,0,1,41.466,59.3l1.587,5.923Z" transform="translate(0 0)" fill="#373636"/><path d="M.821,4.729.8,4.735,0,1.747l.02-.005L0,1.665l2.988-.8.02.076L6.519,0l.8,2.988-3.51.941.926,3.455-2.988.8Z" transform="translate(14.126 20.648)" fill="#373636"/><path d="M.821,3.454.8,3.449,0,6.437l.02.005L0,6.519l2.988.8.02-.076,3.51.941.8-2.988-3.51-.941L4.735.8,1.747,0Z" transform="matrix(0.891, -0.454, 0.454, 0.891, 19.091, 46.376)" fill="#373636"/><path d="M.821,3.454.8,3.449,0,6.437l.02.005L0,6.519l2.988.8.02-.076,3.51.941.8-2.988-3.51-.941L4.735.8,1.747,0Z" transform="translate(46.713 47.39) rotate(-120)" fill="#373636"/><path d="M.821,3.454.8,3.449,0,6.437l.02.005L0,6.519l2.988.8.02-.076,3.51.941.8-2.988-3.51-.941L4.735.8,1.747,0Z" transform="translate(47.456 19.705) rotate(150)" fill="#373636"/><path d="M354.977,232.2h6.553l-2.756,7.817,6.974-1.35-8.83,19.29-.9-.506,3.037-12.879-7.255,1.575Z" transform="translate(-325.649 -210.984)" fill="#d03827"/></g></g></g></g></svg>