<svg xmlns="http://www.w3.org/2000/svg" width="53.084" height="50.602" viewBox="0 0 53.084 50.602">
  <path id="Path_1309" data-name="Path 1309" d="M-16.365-84.59l.082-.093c.923-.914,1.826-1.846,2.7-2.81a34.026,34.026,0,0,0,3.663-4.576,24.28,24.28,0,0,0,2.453-4.359,7.6,7.6,0,0,0,.511-1.71,2.138,2.138,0,0,0-1.286-2.555,11.126,11.126,0,0,0-2.961-.934c-1.871-.385-3.766-.621-5.645-.957a28.728,28.728,0,0,1-7.22-2.492,17.868,17.868,0,0,1-4.239-2.642A4.476,4.476,0,0,1-29.383-109a1.388,1.388,0,0,1-.127-1.139,1.079,1.079,0,0,1,1.188-.822,4.489,4.489,0,0,1,2,.718c.841.475,1.675.966,2.485,1.492a20.039,20.039,0,0,0,5.8,2.56,39.437,39.437,0,0,0,7.9,1.461,9.469,9.469,0,0,0,2.67-.176,2.747,2.747,0,0,0,1.982-1.65,11.71,11.71,0,0,0,.8-4.082,23.656,23.656,0,0,0-.761-6.013c-.554-3.015-1.149-6.022-1.709-9.036a6.182,6.182,0,0,1-.039-2.243,1.381,1.381,0,0,1,2.371-.9A4.549,4.549,0,0,1-3.628-127.2a11.807,11.807,0,0,1,1.006,4.039c.331,2.806.659,5.611.868,8.43.089,1.2-.021,2.411.09,3.608A5.825,5.825,0,0,0,.624-106.83a3.409,3.409,0,0,0,3.571.508A25.078,25.078,0,0,0,6.7-107.627,74.2,74.2,0,0,1,19.849-113.5a8.321,8.321,0,0,1,2.526-.46c1.077,0,1.313.632,1,1.524a3.1,3.1,0,0,1-1.1,1.336,17.8,17.8,0,0,1-4.149,2.306C14.2-107.107,10.28-105.4,6.24-104a6.551,6.551,0,0,0-1.167.543A3.335,3.335,0,0,0,3.518-99.4a8.681,8.681,0,0,0,1.857,3.03A23.9,23.9,0,0,0,7.9-93.94c1.079.925,2.02,1.993,3,3.019,1.064,1.112,2.077,2.27,3.087,3.431.743.914,1.481,1.831,2.15,2.8a5.6,5.6,0,0,1,.741,1.416,1.985,1.985,0,0,1,0,1.33c-.255.634-.715.771-1.243.36a34.148,34.148,0,0,1-2.972-2.772,1.333,1.333,0,0,0-.37-.329l.007-.026c-.667-.693-1.33-1.39-2-2.078-.236-.242-.366-.585-.7-.731-.908-.978-1.821-1.952-2.722-2.936C5.921-91.492,4.945-92.5,4.1-93.632a11.474,11.474,0,0,0-2.862-2.725,3.7,3.7,0,0,0-4.3-.089,10.773,10.773,0,0,0-3.369,3.261c-1.218,1.851-2.319,3.779-3.47,5.674L-11.615-84.7a.337.337,0,0,1,0,.038,2.716,2.716,0,0,0-.464.715,12.705,12.705,0,0,1-3.131,3.63,8.374,8.374,0,0,1-2.163,1.44,2.587,2.587,0,0,1-1.18.242,1.249,1.249,0,0,1-1.156-1.711,7.848,7.848,0,0,1,1.648-2.4C-17.51-83.379-16.931-83.979-16.365-84.59Z" transform="translate(29.581 129.238)" fill="#d02833"/>
</svg>
