<svg id="Group_3238" data-name="Group 3238" xmlns="http://www.w3.org/2000/svg" xmlns:xlink="http://www.w3.org/1999/xlink" width="74" height="74.121" viewBox="0 0 74 74.121">
  <defs>
    <clipPath id="clip-path1">
      <rect id="Rectangle_2529" data-name="Rectangle 2529" width="74" height="74.121" fill="#d13827"/>
    </clipPath>
  </defs>
  <g id="Group_3237" data-name="Group 3237" clip-path="url(#clip-path1)">
    <path id="Path_3023" data-name="Path 3023" d="M86.379,71.7h52.387V2.433H86.309V3.34q0,18.265,0,36.53a7.343,7.343,0,0,1-.009.747,1.187,1.187,0,0,1-2.369,0,5.684,5.684,0,0,1-.008-.6q0-19.125,0-38.249C83.923.334,84.248,0,85.657,0H139.5c1.36,0,1.7.349,1.7,1.73q0,35.335,0,70.67c0,1.368-.349,1.716-1.719,1.716q-26.92,0-53.84,0c-.641,0-1.408.025-1.55-.7a4.66,4.66,0,0,1,.11-2.37c.274-.759,1.461-.673,1.907.041a4.588,4.588,0,0,1,.271.612" transform="translate(-67.201 0)" fill="#d13827"/>
    <path id="Path_3024" data-name="Path 3024" d="M158.178,37.158c0-1.194-.006-2.309,0-3.423a3.577,3.577,0,0,1,3.757-3.748q3.43-.012,6.86,0a3.572,3.572,0,0,1,3.7,3.729c.009,1.116,0,2.233,0,3.441h4.2c2.794,0,4.155,1.367,4.155,4.174q0,5.528,0,11.055a3.6,3.6,0,0,1-3.909,3.9q-11.594,0-23.189,0a3.608,3.608,0,0,1-3.926-3.954q0-5.639,0-11.279a3.6,3.6,0,0,1,3.912-3.892c1.441,0,2.881,0,4.44,0m3.615,16.693h7.076V39.6h-7.076Zm8.307-16.73c0-1.247.044-2.46-.017-3.668a1.1,1.1,0,0,0-1.208-1.07c-2.357-.013-4.714-.009-7.071,0a1.056,1.056,0,0,0-1.181.92c-.083,1.273-.025,2.556-.025,3.82ZM157.036,53.834h2.3V39.583h-2.3Zm16.6-14.225h-2.3V53.859h2.3Zm-19.067-.056c-.444,0-.815-.021-1.183,0a1.148,1.148,0,0,0-1.168,1.2q-.023,5.967,0,11.935a1.149,1.149,0,0,0,1.173,1.2c.385.025.774,0,1.178,0Zm21.53,14.34c.42,0,.765.014,1.109,0a1.181,1.181,0,0,0,1.246-1.28q.019-5.892,0-11.785a1.177,1.177,0,0,0-1.252-1.272c-.36-.017-.722,0-1.1,0Z" transform="translate(-119.977 -24.008)" fill="#d13827"/>
    <path id="Path_3025" data-name="Path 3025" d="M76.2,172.343a18.849,18.849,0,0,1-.917,2.559c-1.165,2.224-2.442,4.388-3.619,6.6a4.257,4.257,0,0,0-.471,1.745,28.849,28.849,0,0,1-2.249,10.963,12.48,12.48,0,0,1-6.383,6.692,1.825,1.825,0,0,0-.6.535c-1.725,2.06-3.427,4.138-5.174,6.179a1.769,1.769,0,0,1-1.1.626,1.245,1.245,0,0,1-.99-.6,1.513,1.513,0,0,1,.1-1.288c1.942-2.427,3.947-4.8,5.944-7.187a1.28,1.28,0,0,1,.552-.362,8.8,8.8,0,0,0,4.683-4.069,19.1,19.1,0,0,0,2.508-7.9c.177-1.53.191-3.078.323-4.614a3.109,3.109,0,0,1,.368-1.185c1.332-2.445,2.687-4.877,4.043-7.309a2.6,2.6,0,0,0,.013-2.826,1.509,1.509,0,0,0-2.751-.044q-3.6,5.356-7.184,10.721c-.222.33-.429.672-.67.987a1.2,1.2,0,0,1-1.642.353,1.149,1.149,0,0,1-.31-1.7c2.689-4.035,5.36-8.082,8.111-12.075a3.7,3.7,0,0,1,5.632-.513,5.707,5.707,0,0,1,1.777,3.7" transform="translate(-43.726 -134.199)" fill="#d13827"/>
    <path id="Path_3026" data-name="Path 3026" d="M1.228,204.134a5.442,5.442,0,0,1-1.03-.81,1.085,1.085,0,0,1,.123-1.379l3.574-4.778c.6-.8,1.165-1.614,1.794-2.383a6.631,6.631,0,0,0,1.494-4.351q0-6.01-.011-12.02A8.49,8.49,0,0,1,9.8,172.127c1.166-1.155,2.316-2.326,3.48-3.483.675-.67,1.357-.728,1.888-.183s.457,1.21-.22,1.894q-1.758,1.776-3.531,3.538a5.99,5.99,0,0,0-1.853,4.413c0,3.658-.048,7.318.038,10.974a11.038,11.038,0,0,1-2.517,7.666c-1.68,2.026-3.172,4.208-4.774,6.3a6.533,6.533,0,0,1-1.079.888" transform="translate(0 -134.608)" fill="#d13827"/>
    <path id="Path_3027" data-name="Path 3027" d="M158.95,304.228a16.571,16.571,0,0,1,1.264-1.466,6.892,6.892,0,0,1,1.753-1.334,1.88,1.88,0,0,1,2.724,1.443c.149.641.22,1.3.354,2.119.458-.384.788-.669,1.127-.943a14.031,14.031,0,0,1,1.751-1.372,1.489,1.489,0,0,1,2.231.753,1.733,1.733,0,0,0,1.4,1.09c.953.153,1.918.242,2.882.307.934.063,1.477.488,1.461,1.231s-.573,1.2-1.51,1.158c-.965-.048-1.932-.13-2.888-.267a4.485,4.485,0,0,1-3.1-1.675,11.645,11.645,0,0,1-1.31,1.114,5.137,5.137,0,0,1-1.725.8,2.173,2.173,0,0,1-2.59-1.706c-.142-.474-.225-.967-.361-1.571-.325.359-.594.692-.9.988a12.956,12.956,0,0,1-2.065,1.907c-1.707,1.044-3.075.2-3.062-1.795a15.694,15.694,0,0,0-.034-2.393c-.456.434-.925.854-1.364,1.3-.711.73-1.356,1.532-2.117,2.2a5.7,5.7,0,0,1-1.765,1.048,1.14,1.14,0,0,1-1.459-.812,1.27,1.27,0,0,1,.8-1.5,6.763,6.763,0,0,0,1.446-1.11c.856-.83,1.624-1.754,2.508-2.55a5.341,5.341,0,0,1,1.714-1.007,1.887,1.887,0,0,1,2.618,1.444,21.568,21.568,0,0,1,.22,2.585" transform="translate(-119.8 -240.283)" fill="#d13827"/>
    <path id="Path_3028" data-name="Path 3028" d="M194.76,186.009h13.2a3.709,3.709,0,0,1,.67.018,1.187,1.187,0,0,1,0,2.353,3.636,3.636,0,0,1-.67.019h-26.4a3.638,3.638,0,0,1-.67-.019,1.187,1.187,0,0,1,0-2.353,3.729,3.729,0,0,1,.67-.018h13.2" transform="translate(-144.03 -148.95)" fill="#d13827"/>
    <path id="Path_3029" data-name="Path 3029" d="M237.779,224.414q-4.325,0-8.651,0c-.818,0-1.318-.387-1.405-1.044a1.209,1.209,0,0,1,1.329-1.34c1.367-.015,2.734,0,4.1,0,4.425,0,8.85-.007,13.274.012a1.608,1.608,0,0,1,1.094.3,1.731,1.731,0,0,1,.372,1.244c-.091.607-.629.839-1.241.838q-3.02-.006-6.041,0h-2.834" transform="translate(-182.35 -177.792)" fill="#d13827"/>
    <path id="Path_3030" data-name="Path 3030" d="M159.988,260.422c-2.908,0-5.817,0-8.725,0-.848,0-1.364-.428-1.408-1.121a1.208,1.208,0,0,1,1.338-1.263c1.466-.014,2.933,0,4.4,0,4.325,0,8.651-.007,12.976.012a1.6,1.6,0,0,1,1.093.3,1.73,1.73,0,0,1,.369,1.245c-.093.607-.631.836-1.243.835q-3.132-.006-6.264,0h-2.536" transform="translate(-120.001 -206.627)" fill="#d13827"/>
    <path id="Path_3031" data-name="Path 3031" d="M275.559,260.425c-1.491,0-2.983.006-4.474,0-.882,0-1.414-.461-1.418-1.186s.526-1.2,1.4-1.2q4.548-.01,9.1,0c.88,0,1.414.462,1.42,1.185s-.532,1.2-1.4,1.2c-1.541.009-3.082,0-4.623,0" transform="translate(-215.947 -206.63)" fill="#d13827"/>
    <path id="Path_3032" data-name="Path 3032" d="M166.622,222.027c1.119,0,2.237-.008,3.355,0,.871.008,1.407.481,1.4,1.207s-.546,1.176-1.427,1.179q-3.355.01-6.711,0c-.871,0-1.406-.481-1.4-1.208s.537-1.171,1.426-1.178c1.118-.008,2.237,0,3.355,0" transform="translate(-129.601 -177.795)" fill="#d13827"/>
  </g>
</svg>
