<svg xmlns="http://www.w3.org/2000/svg" width="37" height="36" viewBox="0 0 37 36">
  <g id="Group_3917" data-name="Group 3917" transform="translate(-1732 -70)">
    <g id="Group_3916" data-name="Group 3916">
      <rect id="Rectangle_2967" data-name="Rectangle 2967" width="37" height="36" rx="10" transform="translate(1732 70)" fill="#d03827"/>
      <path id="lock_FILL1_wght400_GRAD0_opsz48" d="M161.5,157a1.5,1.5,0,0,1-1.5-1.5V144.65a1.5,1.5,0,0,1,1.5-1.5h1.75v-2.4a4.75,4.75,0,1,1,9.5,0v2.4h1.75a1.5,1.5,0,0,1,1.5,1.5V155.5a1.5,1.5,0,0,1-1.5,1.5Zm6.5-5a1.871,1.871,0,0,0,1.358-.551,1.787,1.787,0,0,0,.563-1.324,1.96,1.96,0,0,0-.567-1.362,1.817,1.817,0,0,0-2.721,0,1.982,1.982,0,0,0-.563,1.375,1.766,1.766,0,0,0,.567,1.313A1.886,1.886,0,0,0,168,152Zm-3.254-8.85h6.5v-2.4a3.25,3.25,0,1,0-6.5,0Z" transform="translate(1582.5 -58)" fill="#f7f7f7"/>
    </g>
  </g>
</svg>
