<svg xmlns="http://www.w3.org/2000/svg" width="22.75" height="18.718" viewBox="0 0 22.75 18.718">
  <g id="Group_47464" data-name="Group 47464" transform="translate(-132.057 -588.269)">
    <g id="Group_47463" data-name="Group 47463" transform="translate(132.057 588.269)">
      <g id="Group_47462" data-name="Group 47462" transform="translate(0 0)">
        <path class="mainPath" id="Path_74116" data-name="Path 74116" d="M683.318,465.6a5.192,5.192,0,0,1,.88.34,2.086,2.086,0,0,1,1.061,1.861c.011,2.3.007,4.6,0,6.9a2.19,2.19,0,0,1-2.134,2.182c-1.987.021-3.974.01-5.961.008a.569.569,0,0,0-.372.122c-.628.479-1.262.95-1.893,1.425a.616.616,0,0,1-.489.151.516.516,0,0,1-.433-.467c-.006-.065-.007-.13-.007-.194q0-4.988,0-9.975a2.208,2.208,0,0,1,1.322-2.152,4.534,4.534,0,0,1,.6-.2Zm-3.715,3.9c.948,0,1.9,0,2.846,0a.51.51,0,0,0,.522-.411.5.5,0,0,0-.306-.589.961.961,0,0,0-.328-.046q-2.714,0-5.427,0a1.573,1.573,0,0,0-.211.012.486.486,0,0,0-.421.354.516.516,0,0,0,.514.684C677.729,469.494,678.666,469.492,679.6,469.491Zm.028,1.227h-1.414c-.483,0-.966-.006-1.449,0a.523.523,0,1,0,.043,1.044h5.62a.851.851,0,0,0,.124-.01.507.507,0,0,0,.413-.385.516.516,0,0,0-.526-.649C681.5,470.716,680.568,470.718,679.631,470.718Zm-1.7,2.269c-.371,0-.742,0-1.113,0a.539.539,0,0,0-.577.518.533.533,0,0,0,.542.537q1.148.014,2.3,0a.51.51,0,0,0,.525-.544.521.521,0,0,0-.56-.509C678.677,472.985,678.306,472.987,677.936,472.987Z" transform="translate(-662.516 -465.595)" fill="#363636"/>
        <path class="mainPath" id="Path_74117" data-name="Path 74117" d="M5.724-16.311a3.108,3.108,0,0,0,1.61-.436,3.281,3.281,0,0,0,1.174-1.174,3.108,3.108,0,0,0,.436-1.61,3.108,3.108,0,0,0-.436-1.61,3.281,3.281,0,0,0-1.174-1.174,3.107,3.107,0,0,0-1.61-.436,3.107,3.107,0,0,0-1.61.436A3.281,3.281,0,0,0,2.94-21.14,3.108,3.108,0,0,0,2.5-19.53a3.108,3.108,0,0,0,.436,1.61,3.281,3.281,0,0,0,1.174,1.174A3.108,3.108,0,0,0,5.724-16.311Zm2.862.715H7.356a3.883,3.883,0,0,1-1.632.358A3.883,3.883,0,0,1,4.092-15.6H2.862a2.838,2.838,0,0,0-1.442.38,2.784,2.784,0,0,0-1.04,1.04A2.838,2.838,0,0,0,0-12.734v.358a1.035,1.035,0,0,0,.313.76,1.035,1.035,0,0,0,.76.313h9.3a1.035,1.035,0,0,0,.76-.313,1.035,1.035,0,0,0,.313-.76v-.358a2.838,2.838,0,0,0-.38-1.442,2.784,2.784,0,0,0-1.04-1.04A2.838,2.838,0,0,0,8.585-15.6Z" transform="translate(0 30.02)" fill="#363636"/>
      </g>
    </g>
  </g>
</svg>
