<svg xmlns="http://www.w3.org/2000/svg" width="24.25" height="17.758" viewBox="0 0 24.25 17.758">
  <g id="Group_47377" data-name="Group 47377" transform="translate(13007 13705.179)">
    <g id="Group_47376" data-name="Group 47376" transform="translate(-13007 -13705.179)">
      <g id="Group_47302" data-name="Group 47302" transform="translate(0 0)">
        <g id="Group_47301" data-name="Group 47301">
          <g id="Group_47300" data-name="Group 47300">
            <g id="Group_47299" data-name="Group 47299">
              <path class="mainPath" id="Subtraction_10" data-name="Subtraction 10" d="M16822.311,11622.415h-9.041a1.175,1.175,0,0,1-1.277-1.271l0-.568h9.965v0c0,.065,0,.131,0,.2v.133a2.659,2.659,0,0,0,.016.623,2.605,2.605,0,0,0,.227.6v.006a2.189,2.189,0,0,1,.105.234l.014.03,0,.014Zm1.336-.008a1.188,1.188,0,0,1-.371-.065,1.148,1.148,0,0,1-.781-1.066v-.93c0-.235-.1-.34-.336-.345h-8.465v-13.836a1.14,1.14,0,0,1,.336-.865,1.16,1.16,0,0,1,.867-.337h10.271c-.023.059-.049.116-.074.172v.008l-.016.024a.028.028,0,0,1,0,.013s0,.009,0,.012l-.018.036-.016.042-.035.075,0,.017a3.922,3.922,0,0,0-.156.4,1.431,1.431,0,0,0-.039.446l0,14.909a1.293,1.293,0,0,1-.252.854,1.142,1.142,0,0,1-.869.446Zm-8.057-5.893a.306.306,0,0,0-.275.148.305.305,0,0,0,.275.462h7.324a.305.305,0,0,0,0-.61Zm0-4.271a.3.3,0,1,0,0,.608h7.324a.3.3,0,0,0,.3-.3.3.3,0,0,0-.3-.3Zm0-4.272a.3.3,0,0,0,0,.609h7.328a.3.3,0,0,0,0-.609Zm12.061-1.171h-2.293c0-.079,0-.173-.01-.28v-.048a1.881,1.881,0,0,1,.1-.806,1.165,1.165,0,0,1,1.047-.7.973.973,0,0,1,.141.01,1.136,1.136,0,0,1,1.016,1.081c.012.163.016.325.012.489v.007a.557.557,0,0,0,0,.081v.17Z" transform="translate(-16811.988 -11604.962)" fill="#363636"/>
              <path class="mainPath" id="Path_74048" data-name="Path 74048" d="M27.819,336.24h9.957a2.628,2.628,0,0,0,.366,1.841H29.1a1.175,1.175,0,0,1-1.276-1.272C27.818,336.626,27.819,336.443,27.819,336.24Z" transform="translate(-27.811 -320.604)" fill="#363636"/>
              <path class="mainPath" id="Path_74049" data-name="Path 74049" d="M310.644,10.05h-2.3a2.992,2.992,0,0,1,.089-1.133,1.147,1.147,0,0,1,2.2.384C310.66,9.543,310.644,9.786,310.644,10.05Z" transform="translate(-294.977 -8.186)" fill="#363636"/>
            </g>
          </g>
        </g>
      </g>
      <path class="mainPath" id="Path_74060" data-name="Path 74060" d="M7.5-14.316A4.07,4.07,0,0,0,9.6-14.888a4.3,4.3,0,0,0,1.537-1.537,4.07,4.07,0,0,0,.571-2.108,4.07,4.07,0,0,0-.571-2.108A4.3,4.3,0,0,0,9.6-22.179,4.07,4.07,0,0,0,7.5-22.75a4.07,4.07,0,0,0-2.108.571,4.3,4.3,0,0,0-1.537,1.537,4.07,4.07,0,0,0-.571,2.108,4.07,4.07,0,0,0,.571,2.108,4.3,4.3,0,0,0,1.537,1.537A4.07,4.07,0,0,0,7.5-14.316Zm3.748.937H9.634a5.085,5.085,0,0,1-2.138.469,5.085,5.085,0,0,1-2.138-.469H3.748a3.717,3.717,0,0,0-1.889.5A3.646,3.646,0,0,0,.5-11.52,3.717,3.717,0,0,0,0-9.631v.469a1.355,1.355,0,0,0,.41,1,1.355,1.355,0,0,0,1,.41H13.587a1.355,1.355,0,0,0,1-.41,1.356,1.356,0,0,0,.41-1v-.469a3.717,3.717,0,0,0-.5-1.889,3.646,3.646,0,0,0-1.362-1.362A3.717,3.717,0,0,0,11.245-13.379Z" transform="translate(8.757 25.015)" fill="#363636" stroke="#e4e4e4" stroke-width="1"/>
    </g>
  </g>
</svg>
