<svg xmlns="http://www.w3.org/2000/svg" width="22.75" height="20.475" viewBox="0 0 22.75 20.475">
  <g id="Group_47465" data-name="Group 47465" transform="translate(-2 -3)">
    <g id="Group_47460" data-name="Group 47460" transform="translate(2 3)">
      <path class="mainPath" id="Path_74115" data-name="Path 74115" d="M22.475,3H4.275A2.282,2.282,0,0,0,2,5.275V21.2a2.282,2.282,0,0,0,2.275,2.275h18.2A2.282,2.282,0,0,0,24.75,21.2V5.275A2.282,2.282,0,0,0,22.475,3ZM11.1,18.925H5.413V16.65H11.1Zm0-4.55H5.413V12.1H11.1Zm0-4.55H5.413V7.55H11.1Zm5.483,6.825-3.208-3.23,1.6-1.6,1.6,1.615,3.606-3.606L21.8,11.44Z" transform="translate(-2 -3)" fill="#363636" fill-rule="evenodd"/>
    </g>
  </g>
</svg>
