<svg xmlns="http://www.w3.org/2000/svg" width="40.514" height="48.666" viewBox="0 0 40.514 48.666">
  <g id="Payroll_logo_updated_2_" data-name="Payroll logo updated (2)" transform="translate(-278.5 -462.1)">
    <g id="Group_4" data-name="Group 4" transform="translate(278.5 462.1)">
      <g id="Group_3" data-name="Group 3">
        <g id="Group_2" data-name="Group 2">
          <path id="Path_8" data-name="Path 8" d="M298.757,502.614a20.257,20.257,0,1,1,20.257-20.257A20.257,20.257,0,0,1,298.757,502.614Zm0-31.028a10.771,10.771,0,1,0,10.771,10.771A10.771,10.771,0,0,0,298.757,471.586Z" transform="translate(-278.5 -462.1)" fill="#373636"/>
        </g>
        <path id="Path_9" data-name="Path 9" d="M310.14,484.8a9.14,9.14,0,1,0,9.14,9.14A9.14,9.14,0,0,0,310.14,484.8Zm-3.459,14.921h-.247l-.4-1.136h-1.532V488.9h9.783v2.273h-7.559v8.547Zm7.51-1.136h-5.435v-2.026h2.619v-2.026h-2.619V493.1h5.435Zm1.038-5.781h-1.285v-1.285h1.285Zm.988,1.531h-.939V493.4h.939Zm-.148-1.68v-.889h.889v.889Z" transform="translate(-289.883 -473.584)" fill="#d13b27" fill-rule="evenodd"/>
      </g>
      <path id="Path_10" data-name="Path 10" d="M289.814,510.365,278.5,503.3v22.579a5.735,5.735,0,0,0,5.731,5.731h5.583Z" transform="translate(-278.5 -482.944)" fill="#373636"/>
    </g>
  </g>
</svg>
