<svg xmlns="http://www.w3.org/2000/svg" width="24.303" height="24.303" viewBox="0 0 24.303 24.303">
  <path id="Path_3042" data-name="Path 3042" d="M11.865-9.375l4.883-4.883a1.461,1.461,0,0,0,.439-1.074,1.63,1.63,0,0,0-.439-1.123l-1.074-1.074a1.63,1.63,0,0,0-1.123-.439,1.461,1.461,0,0,0-1.074.439L8.594-12.646,3.711-17.529a1.461,1.461,0,0,0-1.074-.439,1.63,1.63,0,0,0-1.123.439L.439-16.455A1.63,1.63,0,0,0,0-15.332a1.461,1.461,0,0,0,.439,1.074L5.322-9.375.439-4.492A1.461,1.461,0,0,0,0-3.418,1.63,1.63,0,0,0,.439-2.295L1.514-1.221a1.63,1.63,0,0,0,1.123.439,1.461,1.461,0,0,0,1.074-.439L8.594-6.1l4.883,4.883a1.461,1.461,0,0,0,1.074.439,1.63,1.63,0,0,0,1.123-.439l1.074-1.074a1.63,1.63,0,0,0,.439-1.123,1.461,1.461,0,0,0-.439-1.074Z" transform="matrix(0.695, 0.719, -0.719, 0.695, -0.562, 12.482)" fill="#d13827"/>
</svg>
