<svg xmlns="http://www.w3.org/2000/svg" xmlns:xlink="http://www.w3.org/1999/xlink" width="32.4" height="32.4" viewBox="0 0 32.4 32.4">
  <defs>
    <clipPath id="clip-path-recruitment">
      <rect id="Rectangle_9" data-name="Rectangle 9" width="32.4" height="32.4" fill="#d13827"/>
    </clipPath>
  </defs>
  <g id="Group_42" data-name="Group 42" clip-path="url(#clip-path-recruitment)">
    <path id="Path_9" data-name="Path 9" d="M32.4,100.911a.823.823,0,0,1-.866.487c-2.035-.006-4.07,0-6.105,0h-.063c-.511-.009-.815-.252-.808-.646s.293-.615.8-.616q2.689,0,5.378,0H31.1a2.822,2.822,0,0,0-2.5-3.4c-1.08-.069-2.167-.013-3.248-.013a9.2,9.2,0,0,1-6.914,6.948,9.2,9.2,0,0,1-9.372-2.969c-.064.059-.135.119-.2.184q-3.389,3.382-6.778,6.763a1.146,1.146,0,0,0-.39,1.134,1.087,1.087,0,0,0,1.745.608,9.131,9.131,0,0,0,.683-.656c1.082-1.078,2.16-2.16,3.248-3.232a.941.941,0,0,1,.491-.307.907.907,0,0,1,.583.208.493.493,0,0,1,.091.638,1.674,1.674,0,0,1-.292.368c-1.183,1.186-2.372,2.365-3.553,3.553a2.868,2.868,0,0,1-1.46.888c-.05.01-.088.074-.132.113H2.4a2.154,2.154,0,0,0-.334-.178A2.271,2.271,0,0,1,.513,109.21a2.364,2.364,0,0,1,.712-2.495q3.414-3.4,6.824-6.8a1.63,1.63,0,0,1,.326-.2l-.159-.062-1.23-2.936c-1.02,0-2.107-.056-3.187.013a2.821,2.821,0,0,0-2.5,3.4h.619c.685,0,1.37,0,2.055.018a.6.6,0,0,1,.576.6.626.626,0,0,1-.526.615,1.685,1.685,0,0,1-.313.029c-.959,0-1.919-.005-2.878,0A.8.8,0,0,1,0,100.911V99.017a5.325,5.325,0,0,1,.676-1.749,4.026,4.026,0,0,1,2.294-1.675c.071-.02.139-.048.245-.086l-.14-.27a3.287,3.287,0,0,1,.7-3.783,2.689,2.689,0,0,1,3.305-.008c.073.058.149.112.209.157,1.661-3.974,4.567-6.308,8.924-6.3s7.239,2.34,8.853,6.21a7.545,7.545,0,0,1,1.448-.58,2.592,2.592,0,0,1,3.086,2.46,3.063,3.063,0,0,1-.372,2.058,14.224,14.224,0,0,1,1.463.765,3.9,3.9,0,0,1,1.645,2.593c.014.071.04.139.06.209ZM16.2,86.526A8.082,8.082,0,1,0,24.3,94.6a8.124,8.124,0,0,0-8.1-8.075M6.836,93.8a1.463,1.463,0,0,0-.959-1.6,1.354,1.354,0,0,0-1.747.88c-.255,1.032-.076,1.933.89,2.267a1.25,1.25,0,0,0,.34.063c.892.046,1.475-.594,1.476-1.612m21.514-.027c0-.095,0-.19,0-.284a1.4,1.4,0,0,0-1.259-1.352,1.362,1.362,0,0,0-1.485,1.091,3.1,3.1,0,0,0-.007,1.066,1.377,1.377,0,0,0,1.8,1.052,1.45,1.45,0,0,0,.948-1.573" transform="translate(0 -78.553)" fill="#d13827"/>
    <path id="Path_10" data-name="Path 10" d="M197.672,0a.834.834,0,0,1,.456.854c-.023.6,0,1.2-.007,1.8,0,.467-.246.753-.626.753s-.632-.291-.637-.752c-.007-.61.006-1.221,0-1.831a.781.781,0,0,1,.5-.824Z" transform="translate(-181.282)" fill="#d13827"/>
    <path id="Path_11" data-name="Path 11" d="M136.289,31.49a3.359,3.359,0,0,1-.531-.323c-.347-.32-.68-.657-1.007-1a.627.627,0,0,1-.045-.949.634.634,0,0,1,.928.052q.546.523,1.068,1.072a.547.547,0,0,1,.105.719,2.534,2.534,0,0,1-.518.428" transform="translate(-123.87 -26.744)" fill="#d13827"/>
    <path id="Path_12" data-name="Path 12" d="M246.149,31.408c-.145-.117-.376-.217-.453-.387a.693.693,0,0,1,.024-.606,14.1,14.1,0,0,1,1.282-1.3.576.576,0,0,1,.775.068.552.552,0,0,1,.09.744c-.419.467-.876.9-1.33,1.335-.075.072-.211.08-.388.142" transform="translate(-226.208 -26.704)" fill="#d13827"/>
    <path id="Path_13" data-name="Path 13" d="M198.251,54.192a.636.636,0,0,1-.635.613.627.627,0,1,1,.026-1.253.636.636,0,0,1,.609.641" transform="translate(-181.417 -49.316)" fill="#d13827"/>
    <path id="Path_14" data-name="Path 14" d="M115.625,315.552a.641.641,0,0,1-.642.609.62.62,0,0,1-.612-.631.63.63,0,0,1,.634-.614.652.652,0,0,1,.62.635" transform="translate(-105.325 -290.006)" fill="#d13827"/>
    <path id="Path_15" data-name="Path 15" d="M125.258,116.758a6.819,6.819,0,1,1-6.845,6.8,6.856,6.856,0,0,1,6.845-6.8m-4.372,10.223a5.459,5.459,0,0,1,2.412-1.992,3.094,3.094,0,0,1-.6-2.648,2.607,2.607,0,0,1,4.148-1.592,3.2,3.2,0,0,1,.554,3.963c-.064.088-.124.18-.2.288a5.4,5.4,0,0,1,2.4,1.981,5.472,5.472,0,0,0-.437-7.33,5.552,5.552,0,0,0-7.85,0,5.471,5.471,0,0,0-.435,7.33m7.8.942a3.925,3.925,0,0,0-6.875-.006,5.5,5.5,0,0,0,6.875.006m-4.768-4.855c0,.062-.006.178,0,.293a1.328,1.328,0,0,0,2.413.68,2.065,2.065,0,0,0,0-2.007,1.312,1.312,0,0,0-.976-.562,1.364,1.364,0,0,0-1.441,1.6" transform="translate(-109.046 -107.522)" fill="#d13827"/>
  </g>
</svg>
