<svg id="Layer_1-2" xmlns="http://www.w3.org/2000/svg" width="25.598" height="38.431" viewBox="0 0 25.598 38.431">
  <g id="Group_1" data-name="Group 1" transform="translate(0)">
    <path id="Path_1" data-name="Path 1" d="M2.7,0c-.176.054-.354.1-.53.162A3.151,3.151,0,0,0,0,3.171q0,1.575,0,3.15c0,.5.221.726.733.727,1.437,0,2.874,0,4.368,0v.375c0,2.9,0,5.8-.008,8.7a1.2,1.2,0,0,1-.193.617,29.5,29.5,0,0,0-3.721,7.446,10.177,10.177,0,0,0-.463,2.078,5.418,5.418,0,0,0,.14,1.925c.9,3.182,1.855,6.348,2.811,9.514a3.169,3.169,0,0,0,.462.727h9.458a2.975,2.975,0,0,0,.462-.685,15.962,15.962,0,0,0,.623-5.821c-.043-.8-.129-1.594-.2-2.458H14.9q4.3,0,8.6,0a1.927,1.927,0,0,0,2.067-1.579,3.168,3.168,0,0,0,.034-.6q0-11.973,0-23.945A3.2,3.2,0,0,0,23.023.065.586.586,0,0,1,22.9,0H2.7ZM14.076,20.494c-.014-.129-.022-.2-.029-.276a2.558,2.558,0,0,0-5.1.375c-.006,2.089,0,4.178,0,6.267a1.257,1.257,0,0,1-1.248,1.316,1.276,1.276,0,0,1-1.308-1.3c0-.162,0-.325,0-.488q0-11.483-.012-22.967A4.953,4.953,0,0,0,6.206,2.2a5.738,5.738,0,0,0-.4-.9.949.949,0,0,1,.1-.014q8.238,0,16.476,0a1.894,1.894,0,0,1,1.931,1.967q.008,12.084,0,24.168c0,.523-.229.758-.756.759-3.015,0-6.03,0-9.045.007-.236,0-.343-.072-.36-.307-.022-.31-.085-.618-.089-.928-.013-.859,0-1.718,0-2.615h.454c1.314,0,2.627,0,3.941,0,.459,0,.756-.279.733-.665s-.306-.61-.759-.612c-1.314,0-2.627,0-3.941,0-.132,0-.265-.011-.406-.017V21.773h.461q2.908,0,5.817,0c.45,0,.709-.209.739-.576.034-.419-.25-.7-.733-.7q-2.514-.006-5.029,0H14.075ZM4.839,37.144c-.033-.089-.063-.157-.084-.227-.9-3.041-1.814-6.078-2.684-9.128A3.655,3.655,0,0,1,2,26.308,17.442,17.442,0,0,1,3.97,20.834c.334-.648.7-1.278,1.056-1.916a.851.851,0,0,1,.08.425c0,2.527-.009,5.054.005,7.58a2.556,2.556,0,0,0,5.059.5,6.546,6.546,0,0,0,.055-1.233c0-1.864,0-3.727,0-5.591a1.291,1.291,0,0,1,1.062-1.383,1.258,1.258,0,0,1,1.487,1.319c.008,2.226,0,4.453.005,6.678a3.223,3.223,0,0,0,.065.669,22.339,22.339,0,0,1,.506,6.706c-.078.862-.254,1.714-.385,2.562H4.841ZM5.1,5.744H1.288a1.389,1.389,0,0,1-.023-.171c0-.813-.014-1.626,0-2.438a1.912,1.912,0,0,1,3.821-.05C5.125,3.958,5.1,4.834,5.1,5.744Z" transform="translate(0)" fill="#d13827"/>
    <path id="Path_2" data-name="Path 2" d="M59.83,65.574a5.758,5.758,0,1,0,5.78-5.754A5.743,5.743,0,0,0,59.83,65.574Zm3.146-3.619a4.453,4.453,0,0,1,5.921.6,4.391,4.391,0,0,1,.3,5.626l-6.222-6.222Zm5.245,7.236a4.46,4.46,0,0,1-6.234-6.238Z" transform="translate(-50.238 -55.33)" fill="#d13827"/>
  </g>
</svg>
