<svg xmlns="http://www.w3.org/2000/svg" width="40.382" height="48.665" viewBox="0 0 40.382 48.665">
  <g id="SSA_Logo-01_2_" data-name="SSA_Logo-01 (2)" transform="translate(-78.85 -31.62)">
    <path id="Path_74050" data-name="Path 74050" d="M135.85,91.045V86.213l15.877-7.593,4.832,2.416Z" transform="translate(-37.327 -30.778)" fill="#d13b27"/>
    <path id="Path_74051" data-name="Path 74051" d="M126.9,111.036l5.522-2.416v6.558l-21.054,10.7v4.832l-5.522-2.416v-4.832l21.054-10.7Z" transform="translate(-17.681 -50.424)" fill="#d13b27"/>
    <path id="Path_74052" data-name="Path 74052" d="M91.275,129.417l-6.9,3.451V137.7l-5.522-2.416v-4.832l9.319-4.832Z" transform="translate(0 -61.557)" fill="#373636"/>
    <path id="Path_74053" data-name="Path 74053" d="M131.045,44.62l4.832,2.071-24.85,12.425V77.409l-5.177-2.071V57.045Z" transform="translate(-17.681 -8.513)" fill="#d13b27"/>
    <path id="Path_74054" data-name="Path 74054" d="M104.045,31.62l4.832,2.071L84.027,46.116V64.409L78.85,62.338V44.045Z" fill="#373636"/>
  </g>
</svg>
