<?xml version="1.0" encoding="UTF-8"?><svg id="Layer_2" xmlns="http://www.w3.org/2000/svg" viewBox="0 0 356.56 383.52"><defs><style>.cls-1{fill:#d13b27;}</style></defs><g id="Layer_1-2"><g><path class="cls-1" d="m39.08,383.52c-12.1-2.71-22.3-8.48-29.78-18.59C3.33,356.86.1,347.73.08,337.75-.02,268.64.02,199.54.04,130.43c0-1.23.11-2.5.42-3.69.74-2.89,2.73-4.52,5.67-4.52,3.12,0,5.19,1.78,5.86,4.79.37,1.68.29,3.47.29,5.21.01,56.01.01,112.02.01,168.02,0,1.45,0,2.89,0,4.39,1.91-.13,2.54-1.36,3.43-2.14,9.25-8.05,20.02-11.95,32.23-11.95,45.28,0,90.56,0,135.84,0q4.48,0,3.32-4.19c-2.52-9.09-3.57-18.36-2.93-27.76.24-3.55-1.04-4.45-4.42-4.44-41.79.09-83.58.06-125.36.05-1.49,0-3.03.11-4.47-.18-2.98-.61-4.96-2.37-5.04-5.61-.07-3.14,1.47-5.31,4.56-5.96,1.93-.41,3.95-.46,5.94-.46,42.16-.02,84.32-.06,126.49.06,3.57,0,5.29-.95,6.26-4.55,1.85-6.89,5.01-13.28,8.78-19.36.57-.92,1.81-1.87,1.34-2.93-.61-1.37-2.21-.74-3.37-.74-42.29-.03-84.57-.02-126.86-.03-5.24,0-10.48.03-15.72-.03-2.71-.03-5.23-.61-6.7-3.27-1.99-3.6-.09-7.8,4.05-8.7,1.56-.34,3.22-.25,4.84-.25,50.02-.01,100.04-.04,150.06.05,3.33,0,5.87-.85,8.39-3.07,18.42-16.27,40.04-23.34,64.48-21.58,3.75.27,4.33-.98,4.32-4.26-.1-26.82-.12-53.64.02-80.46.02-3.77-1.11-4.86-4.9-4.86-58.5.11-117.01.06-175.51.12-4.52,0-8.67-.77-12.3-3.57-6.84-5.27-8.84-14.28-4.8-22.16,1.94-3.78,3.8-7.54,4.77-11.73,4.19-17.97-9.65-41.05-35.36-38.99-17.73,1.42-30.82,9.08-38.19,25.55-2.11,4.71-3.15,9.71-3.15,14.89,0,16.72-.01,33.43-.03,50.15,0,1.74.14,3.5-.55,5.17-1.08,2.59-2.96,3.92-5.8,3.84-2.69-.08-4.39-1.49-5.37-3.92-.62-1.56-.53-3.18-.53-4.8,0-16.34-.06-32.68.01-49.02C.17,23.48,23.73.03,53.86.02,127.96-.01,202.05,0,276.15.02c20.82,0,38.32,13.37,43.3,32.98,5.08,20.02-3.73,40.1-22.15,50.05-2.54,1.37-3.55,2.85-3.53,5.77.1,29.19.1,58.38,0,87.57-.01,2.96.88,4.35,3.74,5.4,32.86,12.02,52.76,35.37,58.02,69.88,4.31,28.32-4.93,52.87-24.96,73.29-1.62,1.65-2.53,3.13-2.23,5.52,3.24,25.21-11.98,46.92-36.72,52.51-.6.14-1.18.36-1.77.54H39.08Zm39.36-11.49h5.18c64.23,0,128.46-.01,192.69.02,4,0,7.97-.24,11.93-.74,14.68-1.86,28.35-16.97,28.43-31.36.01-2.33-.1-3.8-3.02-2.09-16.22,9.47-33.71,13.31-52.42,11.39-10.01-1.03-19.57-3.77-28.6-8.21-3.26-1.6-4.36-4.85-3.01-7.85,1.37-3.04,4.37-4.23,7.81-3.06.82.28,1.62.64,2.42.99,12.48,5.5,25.42,7.53,39.04,5.94,41.18-4.81,70.35-42.34,64.76-83.54-5.53-40.82-43.24-69.37-83.92-63.53-52.45,7.53-80.31,66.33-52.99,111.81,3.62,6.03,8.08,11.37,13.12,16.25,2.14,2.06,3.3,4.39,1.92,7.37-1.84,3.99-6.32,4.72-9.97,1.47-6.76-6.03-12.23-13.15-16.62-21.05-1.27-2.29-2.78-3.08-5.33-3.07-36.04.07-72.09.04-108.13.07-.88,0-2-.5-2.62.67,18.01,17.76,19.97,47.42-.69,68.52ZM88.27,11.76c.98,1.17,1.42,1.74,1.9,2.27,8.46,9.52,12.24,20.61,11.36,33.35-.48,6.99-2.6,13.39-6.02,19.46-2.87,5.09-.54,9.13,5.34,9.48,1.37.08,2.74.03,4.12.03,55.26,0,110.52,0,165.78,0,3.37,0,6.71-.17,10.07-.56,22.24-2.54,35.11-27.69,24.01-47.21-6.86-12.07-17.74-16.86-31.23-16.85-60.37.03-120.75.01-181.12.01-1.11,0-2.23,0-4.2,0ZM12.3,337.07c-.05,19.14,15.06,34.58,34.15,34.89,18.74.31,34.86-15.64,35.01-34.64.15-18.79-15.56-34.47-34.56-34.49-19.26-.02-34.55,15.11-34.6,34.23Z"/><path class="cls-1" d="m146.86,174.23c-30.81,0-61.61,0-92.42,0-1.37,0-2.75.06-4.11-.07-3.44-.32-5.52-2.6-5.48-5.9.04-3.28,2.15-5.46,5.64-5.76.99-.08,1.99-.05,2.99-.05,62.36,0,124.73,0,187.09,0,.75,0,1.5-.02,2.24.02,4.04.19,6.68,2.68,6.54,6.17-.13,3.28-2.71,5.55-6.69,5.56-23.57.04-47.15.03-70.72.03-8.36,0-16.71,0-25.07,0Z"/><path class="cls-1" d="m107.16,130.31c-18.82,0-37.64,0-56.45,0-.84,0-1.68.06-2.51-.07-2.1-.32-3.37-2.6-3.35-5.9.02-3.28,1.31-5.46,3.44-5.76.61-.08,1.22-.05,1.83-.05,38.09,0,76.19,0,114.28,0,.46,0,.91-.02,1.37.02,2.47.19,4.08,2.68,3.99,6.17-.08,3.28-1.66,5.55-4.09,5.56-14.4.04-28.8.03-43.2.03-5.1,0-10.21,0-15.31,0Z"/><path class="cls-1" d="m221.49,263.27c.04-26.95,21.79-48.47,48.97-48.43,26.86.03,48.75,22,48.69,48.86-.07,26.42-22.26,48.61-48.75,48.73-26.83.12-48.95-22.11-48.91-49.16Zm85.39.6c.04-13.71-6.64-25.73-18.67-32.36-11.9-6.57-24.05-6.41-36.07,0-1.79.95-3.77,1.66-1.21,4.2,15.67,15.53,31.26,31.14,46.8,46.8,2.16,2.17,3.18,1.44,4.38-.8,3-5.58,4.86-11.45,4.76-17.85Zm-34.2,36.35c3.77-.09,9.64-1.5,15.12-4.49,3.62-1.98,3.69-2.31.75-5.25-15.16-15.17-30.37-30.29-45.45-45.54-2.35-2.38-3.41-2.27-5.05.67-13.55,24.24,4.27,54.56,34.63,54.61Z"/><path class="cls-1" d="m64.79,337.35c0,10.17-7.82,17.98-18,17.98-10.04,0-18.14-7.96-18.28-17.94-.14-9.81,8.5-18.42,18.42-18.36,9.94.06,17.87,8.2,17.86,18.33Zm-11.86-.21c-.13-3.28-3.12-5.95-6.52-5.81-3.35.13-5.73,2.72-5.62,6.12.1,3.23,2.87,6,5.97,5.97,3.21-.04,6.3-3.17,6.17-6.27Z"/></g></g></svg>