<svg id="Group_513" data-name="Group 513" xmlns="http://www.w3.org/2000/svg" xmlns:xlink="http://www.w3.org/1999/xlink" width="19.107" height="14.02" viewBox="0 0 19.107 14.02">
  <defs>
    <clipPath id="clip-path1">
      <rect id="Rectangle_2862" data-name="Rectangle 2862" width="19.107" height="14.02" fill="#757575"/>
    </clipPath>
  </defs>
  <g id="Group_512" data-name="Group 512" clip-path="url(#clip-path1)">
    <path id="Path_741" data-name="Path 741" d="M19.107,1.674V13.616c-.3.46-.518.511-1,.233-.834-.482-1.666-.965-2.5-1.439a.741.741,0,0,0-.349-.092q-3.759-.008-7.518,0H7.5v-.227c0-1.269,0-2.537,0-3.806a.337.337,0,0,1,.15-.308A3.375,3.375,0,0,0,7.3,2.36a.569.569,0,0,0-.916.528c0,.441,0,.883,0,1.324a.287.287,0,0,1-.089.2c-.217.166-.445.316-.675.477-.222-.155-.446-.3-.656-.464a.307.307,0,0,1-.107-.208c-.01-.447,0-.9-.005-1.343a.567.567,0,0,0-.9-.525,3.376,3.376,0,0,0-.359,5.634.3.3,0,0,1,.139.277c0,1.287,0,2.574,0,3.862,0,.06-.005.12-.009.194-.587,0-1.158,0-1.73,0A1.919,1.919,0,0,1,0,10.327Q0,6.157,0,1.988a2.2,2.2,0,0,1,.058-.516A1.922,1.922,0,0,1,2.013,0h14.4c.255,0,.51,0,.765,0A1.93,1.93,0,0,1,19.053,1.48c.016.065.036.129.055.193M13.491,3.358c.926,0,1.851,0,2.777,0a.551.551,0,0,0,.551-.337.564.564,0,0,0-.58-.783q-2.749,0-5.5,0a.573.573,0,0,0-.627.567.566.566,0,0,0,.638.551h2.74M13.477,5.6q1.388,0,2.777,0a.561.561,0,1,0,.019-1.118q-2.786,0-5.573,0a.716.716,0,0,0-.362.12.518.518,0,0,0-.2.593.539.539,0,0,0,.542.4c.932,0,1.864,0,2.8,0m.006,2.239q1.389,0,2.777,0a.559.559,0,0,0,.608-.543.566.566,0,0,0-.6-.574q-2.777,0-5.554,0a.729.729,0,0,0-.349.1.526.526,0,0,0-.228.6.545.545,0,0,0,.552.413c.932,0,1.864,0,2.8,0m-1.134,2.239c.546,0,1.093,0,1.639,0a.559.559,0,0,0,.6-.547.567.567,0,0,0-.6-.571q-1.63,0-3.26,0a.57.57,0,0,0-.613.562.561.561,0,0,0,.614.556c.54,0,1.08,0,1.621,0" transform="translate(0 0)" fill="#757575"/>
    <path id="Path_742" data-name="Path 742" d="M71.472,82.8c0,.14-.007.28,0,.419a.641.641,0,0,1-.317.61c-.4.272-.794.556-1.193.832a.584.584,0,0,1-.771-.008c-.4-.281-.8-.564-1.208-.843a.609.609,0,0,1-.291-.567c.007-.148,0-.3,0-.445a.227.227,0,0,0-.108.106,2.241,2.241,0,0,0,.846,2.987.717.717,0,0,1,.385.684c-.008,1.393,0,2.785,0,4.178v.219h1.537v-.233c0-1.393,0-2.785,0-4.178a.708.708,0,0,1,.381-.667,2.2,2.2,0,0,0,1.106-2.06,1.71,1.71,0,0,0-.363-1.035" transform="translate(-63.968 -78.673)" fill="#757575"/>
    <path id="Path_743" data-name="Path 743" d="M71.472,82.8a1.71,1.71,0,0,1,.363,1.035A2.2,2.2,0,0,1,70.73,85.9a.708.708,0,0,0-.381.667c.007,1.393,0,2.785,0,4.178v.233H68.816v-.219c0-1.393,0-2.785,0-4.178a.717.717,0,0,0-.385-.684,2.241,2.241,0,0,1-.846-2.987A.227.227,0,0,1,67.7,82.8c0,.148.006.3,0,.445a.609.609,0,0,0,.291.567c.4.278.805.562,1.208.843a.584.584,0,0,0,.771.008c.4-.276.792-.56,1.193-.832a.641.641,0,0,0,.317-.61c-.009-.139,0-.279,0-.419" transform="translate(-63.968 -78.673)" fill="#757575"/>
  </g>
</svg>
