<svg xmlns="http://www.w3.org/2000/svg" xmlns:xlink="http://www.w3.org/1999/xlink" width="33.008" height="38.431" viewBox="0 0 33.008 38.431">
  <defs>
    <clipPath id="clip-path1">
      <rect id="Rectangle_3" data-name="Rectangle 3" width="33.008" height="38.431" fill="#d13827"/>
    </clipPath>
  </defs>
  <g id="Group_2" data-name="Group 2" clip-path="url(#clip-path1)">
    <path id="Path_3" data-name="Path 3" d="M18.74,0c.231.065.467.116.692.2a3.3,3.3,0,0,1,2.175,3.1q0,4.195,0,8.39a.278.278,0,0,1-.2.3c-.327.143-.645.307-1,.48v-.292q0-4.342,0-8.684a2.182,2.182,0,0,0-1.1-2.028A2.136,2.136,0,0,0,18.2,1.2H2.05c-.056,0-.112.007-.223.014.251.171.457.313.665.453C4.092,2.744,5.715,3.785,7.284,4.9A6.49,6.49,0,0,1,10.2,10.37c.026,7.26.01,14.519.01,21.779v.273h7.915a2.143,2.143,0,0,0,2.288-2.277c.005-.967,0-1.934,0-2.9v-.22H21.6c0,.081.01.15.01.22q0,1.558,0,3.117a3.3,3.3,0,0,1-3.248,3.257q-3.949,0-7.9,0h-.24c0,.085-.011.159-.012.234,0,.973.006,1.947-.021,2.92a2.356,2.356,0,0,1-.2.831,1.352,1.352,0,0,1-1.575.8,4.516,4.516,0,0,1-1.332-.6q-3.447-1.944-6.9-3.883A.324.324,0,0,1,0,33.58Q.006,16.79,0,0ZM1.2,2.261V17.544q0,7.614-.005,15.229a.475.475,0,0,0,.283.483c2.228,1.247,4.448,2.507,6.673,3.759A2.391,2.391,0,0,0,8.6,37.2a.227.227,0,0,0,.324-.186A3.617,3.617,0,0,0,9,36.374q.005-12.916.009-25.832a5.329,5.329,0,0,0-.549-2.42,5.631,5.631,0,0,0-1.92-2.279C5.023,4.837,3.515,3.814,2,2.8l-.8-.537" transform="translate(0)" fill="#d13827"/>
    <path id="Path_4" data-name="Path 4" d="M326.926,327.154c-.032.091-.065.181-.1.272a1.924,1.924,0,0,1-1.841,1.3q-2.371,0-4.743,0h-.237c-.026.151-.041.286-.075.417a2.018,2.018,0,0,1-.759,1.133.335.335,0,0,0-.119.234,2.026,2.026,0,0,1-.679,1.569.346.346,0,0,0-.1.246,1.951,1.951,0,0,1-1.965,2.138c-1.548.006-3.1,0-4.645,0a6.544,6.544,0,0,1-2.788-.7c-.343-.161-.68-.333-1.023-.495a3.5,3.5,0,0,0-1.165-.381.842.842,0,0,1-.77-.885q0-2.754,0-5.508a.85.85,0,0,1,.849-.895,4.132,4.132,0,0,0,2.457-.787,21.055,21.055,0,0,1,4.277-2.015c.738-.292,1.442-.672,2.161-1.01a4.941,4.941,0,0,1,1.674-.522A1.811,1.811,0,0,1,319.3,322.4a1.97,1.97,0,0,1-.536,2.248c-.073.064-.148.125-.274.232h.251c2.045,0,4.09.015,6.134-.007A1.977,1.977,0,0,1,326.9,326.4a.166.166,0,0,0,.03.049Zm-19.8-.29v.192q0,2.166,0,4.332c0,.317.01.293.306.411.545.217,1.089.442,1.611.708a6.6,6.6,0,0,0,3.279.764c1.305-.043,2.613-.01,3.919-.011a.762.762,0,0,0,.721-1.17c-.092-.185-.183-.371-.282-.573.182-.06.342-.114.5-.166a.785.785,0,0,0,.541-1.212c-.085-.187-.167-.375-.259-.58l.682-.138a.692.692,0,0,0,.6-.545,1.217,1.217,0,0,0-.042-.552c-.076-.265-.2-.517-.307-.8h6.425a1.7,1.7,0,0,0,.273-.013.7.7,0,0,0,.575-.447.714.714,0,0,0-.735-.981H314.22a.39.39,0,0,1,.163-.147c.667-.373,1.346-.726,2-1.126.554-.341,1.086-.723,1.606-1.116a.694.694,0,0,0,.177-.872.609.609,0,0,0-.751-.347,4.536,4.536,0,0,0-1.057.338,28.225,28.225,0,0,1-3.527,1.552,15.425,15.425,0,0,0-3.192,1.612,4.729,4.729,0,0,1-1,.5c-.479.161-.981.253-1.514.385" transform="translate(-293.918 -308.649)" fill="#d13827"/>
    <path id="Path_5" data-name="Path 5" d="M251.1,57.222H248.08c-.072,0-.144,0-.215,0a.607.607,0,0,1-.608-.611.6.6,0,0,1,.62-.595c.509,0,1.019,0,1.528,0,1.567,0,3.134,0,4.7,0a4.157,4.157,0,0,1,.835.09,2.168,2.168,0,0,1,1.782,2.041,6.043,6.043,0,0,1,.038.664q0,2.537,0,5.075a.6.6,0,0,1-1.2.082c0-.052,0-.1,0-.157q0-2.586-.009-5.172c0-.052,0-.1,0-.157-.048-.857-.419-1.231-1.277-1.253-.626-.016-1.254-.005-1.88-.006H251.1" transform="translate(-237.553 -53.813)" fill="#d13827"/>
    <path id="Path_6" data-name="Path 6" d="M163.181,506.621c-.067.37-.106.748-.207,1.108a.671.671,0,0,1-.695.548.606.606,0,0,1-.518-.89,1.168,1.168,0,0,0,.143-.454c.016-.363,0-.728-.016-1.092a.477.477,0,0,0-.085-.213.612.612,0,0,1,.131-.839.636.636,0,0,1,.85.1,1.556,1.556,0,0,1,.323.926c.027.265.029.533.042.8l.032.008" transform="translate(-155.346 -484.863)" fill="#d13827"/>
  </g>
</svg>
