<svg xmlns="http://www.w3.org/2000/svg" width="59.719" height="61.04" viewBox="0 0 59.719 61.04">
  <path id="_7049364_conference_meeting_discussion_strategy_training_icon" data-name="7049364_conference_meeting_discussion_strategy_training_icon" d="M96.037,68.454h-10.8a2.4,2.4,0,0,0,.323-1.395c-.049-.667-.111-1.3-.183-1.926h7.275a.59.59,0,0,0,.59-.59V35.13a.59.59,0,0,0-.59-.59H44.644a.59.59,0,0,0-.59.59V64.543a.59.59,0,0,0,.59.59H69.082c-.121,1.065-.2,2.184-.222,3.321h-27.6a1.99,1.99,0,0,0-1.987,1.987V85.982a1.988,1.988,0,0,0,1.987,1.986H44.8a27.631,27.631,0,0,0-1.014,5.98.591.591,0,0,0,.542.632h.045a.59.59,0,0,0,.587-.542,24.332,24.332,0,0,1,1.182-6.415.362.362,0,0,0,.012-.035c.995-2.718,2.243-3.146,2.642-3.2a5.475,5.475,0,0,0,3.188,0c.385.06,1.651.474,2.655,3.223h0a24.231,24.231,0,0,1,1.189,6.426.588.588,0,0,0,.587.542h.045A.591.591,0,0,0,57,93.943a27.472,27.472,0,0,0-1.014-5.98h7.048a27.566,27.566,0,0,0-1.013,5.98.59.59,0,0,0,.542.632h.043a.59.59,0,0,0,.588-.542,24.336,24.336,0,0,1,1.183-6.419.156.156,0,0,0,.008-.023c1-2.722,2.247-3.154,2.645-3.212a5.471,5.471,0,0,0,3.187,0c.386.058,1.652.473,2.657,3.223h0a24.241,24.241,0,0,1,1.187,6.426.59.59,0,0,0,.588.542H74.7a.59.59,0,0,0,.542-.632,27.472,27.472,0,0,0-1.014-5.98h7.048a27.471,27.471,0,0,0-1.014,5.98.591.591,0,0,0,.542.632h.045a.588.588,0,0,0,.587-.542,24.438,24.438,0,0,1,1.178-6.409c.008-.019.012-.038.019-.057.994-2.711,2.239-3.132,2.638-3.189a5.479,5.479,0,0,0,3.189,0c.385.058,1.651.473,2.654,3.221V87.6A24.272,24.272,0,0,1,92.3,94.024a.59.59,0,0,0,.587.542h.045a.591.591,0,0,0,.542-.632,27.471,27.471,0,0,0-1.014-5.98H96a1.988,1.988,0,0,0,1.987-1.986V70.441a1.99,1.99,0,0,0-1.952-1.987Zm-50.8-4.5V35.714H92.06v28.24H85.224c-.678-4.76-2.055-8.057-4.1-9.819a6.433,6.433,0,1,0-10.356-1.7L64.24,48.761a2.688,2.688,0,0,0-2.632,4.682l8.92,5.015a28.232,28.232,0,0,0-1.3,5.5ZM71.3,49.63a5.248,5.248,0,1,1,5.248,5.248A5.248,5.248,0,0,1,71.3,49.63Zm.506,8.811a.5.5,0,0,0,.02-.089.557.557,0,0,0,.027-.114.506.506,0,0,0-.009-.111.515.515,0,0,0-.019-.111.532.532,0,0,0-.05-.1.576.576,0,0,0-.058-.095.7.7,0,0,0-.089-.077.729.729,0,0,0-.069-.06L62.185,52.42a1.508,1.508,0,0,1,1.476-2.63L73.645,55.4a.6.6,0,0,0,.229.07,6.377,6.377,0,0,0,6.34-.563l.061.046c2.265,1.879,3.648,5.982,4.108,12.2a1.235,1.235,0,0,1-1,1.308h-.5a1.244,1.244,0,0,1-.984-1.124,33.475,33.475,0,0,0-.905-5.93.59.59,0,0,0-1.141.3,32.363,32.363,0,0,1,.872,5.717,2.359,2.359,0,0,0,.333,1.037H70.039A30.837,30.837,0,0,1,71.807,58.441Zm-22.52,24.85a.577.577,0,0,0-.244-.091h-.069a4.354,4.354,0,1,1,2.846,0h-.069a.583.583,0,0,0-.241.089,4.2,4.2,0,0,1-2.224,0Zm18.25,0a.584.584,0,0,0-.244-.091h-.07a4.352,4.352,0,1,1,2.846,0H70a.583.583,0,0,0-.24.089,4.2,4.2,0,0,1-2.224,0Zm18.249,0a.577.577,0,0,0-.244-.091h-.069a4.354,4.354,0,1,1,2.846,0H88.25a.583.583,0,0,0-.241.089,4.309,4.309,0,0,1-1.114.15A4.353,4.353,0,0,1,85.785,83.291Zm11.055,2.692a.813.813,0,0,1-.813.807H92.069a7.082,7.082,0,0,0-1.883-2.846c-.1-.084-.2-.153-.3-.221a5.533,5.533,0,1,0-6,0c-.1.068-.2.136-.3.221A7,7,0,0,0,81.7,86.789H73.83a7.068,7.068,0,0,0-1.884-2.846c-.1-.084-.2-.153-.3-.221a5.532,5.532,0,1,0-6,0c-.1.068-.2.136-.3.221a6.989,6.989,0,0,0-1.884,2.846H55.58A7.083,7.083,0,0,0,53.7,83.943c-.1-.084-.2-.153-.3-.221a5.533,5.533,0,1,0-6,0,3.672,3.672,0,0,0-.3.221,7,7,0,0,0-1.883,2.846H41.257a.813.813,0,0,1-.813-.807V70.441a.813.813,0,0,1,.813-.813H69.293a.378.378,0,0,0,.294,0H82.83a2.3,2.3,0,0,0,.306.03,1.578,1.578,0,0,0,.182-.007c.057-.007.088-.016.136-.023H96.038a.813.813,0,0,1,.813.813Z" transform="translate(-38.77 -34.04)" fill="#d03827" stroke="#d03827" stroke-width="1"/>
</svg>
