<svg xmlns="http://www.w3.org/2000/svg" xmlns:xlink="http://www.w3.org/1999/xlink" width="22.75" height="26.429" viewBox="0 0 22.75 26.429">
  <defs>
    <clipPath id="clip-path">
      <rect id="Rectangle_10286" data-name="Rectangle 10286" width="19.704" height="15.584" fill="#373636"/>
    </clipPath>
  </defs>
  <g id="Group_47411" data-name="Group 47411" transform="translate(-1023 -667.11)">
    <g id="Group_47410" data-name="Group 47410" transform="translate(1023 667.11)">
      <g id="Group_47386" data-name="Group 47386" transform="translate(0)">
        <g id="Group_47385" data-name="Group 47385" transform="translate(0)">
          <path id="Path_74091" class="mainPath" data-name="Path 74091" d="M22.426,14.076c0-.278-.012-.543-.035-.821l2.176-1.7a1.24,1.24,0,0,0,.3-1.57l-2.188-3.9a1.137,1.137,0,0,0-1.462-.507l-2.515,1.1a8.813,8.813,0,0,0-1.369-.821L17,3.063A1.187,1.187,0,0,0,15.839,2H11.476a1.19,1.19,0,0,0-1.17,1.063L9.967,5.852A8.813,8.813,0,0,0,8.6,6.673l-2.515-1.1a1.137,1.137,0,0,0-1.462.507L2.433,9.994a1.243,1.243,0,0,0,.3,1.57l2.176,1.7c-.023.266-.035.531-.035.809s.012.543.035.821c0,.043,17.565-.021,17.466,0A6.442,6.442,0,0,0,22.426,14.076ZM9.614,14.9c0-2.331,2.416-3.315,4.056-3.269,1.7,0,4.134,1.216,4.134,3.269h0s-8.189.029-8.189,0Z" transform="translate(-2.277 -2)" fill="#373636"/>
        </g>
      </g>
      <path id="Path_74093" data-name="Path 74093" d="M138.279,0a4.675,4.675,0,0,1,4.81,4.463,4.827,4.827,0,0,1-9.635-.014A4.677,4.677,0,0,1,138.279,0" transform="translate(-126.895 9.542)" fill="#e3e3e3"/>
      <g id="Mask_Group_1603" data-name="Mask Group 1603" transform="translate(1.523 10.844)" clip-path="url(#clip-path)">
        <path class="mainPath" id="Path_74094" data-name="Path 74094" d="M322.99,192.629a1.85,1.85,0,0,1-.419.849,1.464,1.464,0,0,1-1,.518c-.927.029-1.855.009-2.738.009.011-.53.029-1.071.031-1.612,0-1.327,0-2.654,0-3.982a4.078,4.078,0,0,0-.211-1.449.563.563,0,0,1-.013-.109,8.765,8.765,0,0,1,2.429.16,2.645,2.645,0,0,1,1.884,2.124.42.42,0,0,0,.033.082Z" transform="translate(-303.286 -178.45)" fill="#373636"/>
        <path class="mainPath" id="Path_74095" data-name="Path 74095" d="M113.9,164.946H110c-.472,0-.678-.192-.678-.633,0-1.74,0-3.48,0-5.22a2.675,2.675,0,0,1,2.232-2.632,3.048,3.048,0,0,1,.628-.061c1.148-.006,2.3-.009,3.443,0a2.778,2.778,0,0,1,2.789,2.074,2.7,2.7,0,0,1,.069.639q.008,2.61,0,5.22c0,.416-.212.614-.659.615H113.9" transform="translate(-104.048 -149.363)" fill="#373636"/>
        <path class="mainPath" id="Path_74097" data-name="Path 74097" d="M4.172,194.169c-.616,0-1.256.006-1.9,0a4.754,4.754,0,0,1-.993-.061A1.577,1.577,0,0,1,0,192.519c0-.927,0-1.854,0-2.781A2.75,2.75,0,0,1,2.864,187c.491-.012.983,0,1.5,0a2.846,2.846,0,0,0-.113.382,7.515,7.515,0,0,0-.119,1.013c-.013,1.567-.008,3.134,0,4.7,0,.351.028.7.045,1.078" transform="translate(0 -178.587)" fill="#373636"/>
        <path class="mainPath" id="Path_74098" data-name="Path 74098" d="M31.856,68.563a2.562,2.562,0,1,1-2.526-2.388,2.466,2.466,0,0,1,2.526,2.388" transform="translate(-25.455 -63.2)" fill="#373636"/>
        <path class="mainPath" id="Path_74099" data-name="Path 74099" d="M281.174,68.55a2.562,2.562,0,1,1-2.562-2.376,2.484,2.484,0,0,1,2.562,2.376" transform="translate(-262.758 -63.199)" fill="#373636"/>
      </g>
      <path class="mainPath" id="Path_74111" data-name="Path 74111" d="M282.425,69.132a3.189,3.189,0,1,1-3.189-2.958,3.092,3.092,0,0,1,3.189,2.958" transform="translate(-267.869 -55.108)" fill="#373636"/>
    </g>
  </g>
</svg>
